<svg width="86" height="86" viewBox="0 0 86 86" fill="none" xmlns="http://www.w3.org/2000/svg">
<rect width="86" height="86" fill="#061546"/>
<path d="M65.8604 18.8232C66.1762 18.8232 66.4322 19.0793 66.4322 19.3951V59.5754C66.4322 59.8913 66.1762 60.1473 65.8604 60.1473H55.9851C55.6693 60.1473 55.4133 59.8912 55.4133 59.5754V42.0477C55.4133 41.5566 54.8352 41.294 54.4653 41.6169L29.0587 63.8028C28.8087 64.0211 28.4259 63.9814 28.226 63.7163L20.3419 53.2614C20.1605 53.0209 20.1969 52.6809 20.4249 52.4842L45.1399 31.1621C45.5412 30.8159 45.2963 30.1573 44.7663 30.1573H25.3659C25.0501 30.1573 24.7941 29.9012 24.7941 29.5854V19.3951C24.7941 19.0793 25.0501 18.8232 25.3659 18.8232H65.8604Z" fill="#081A54"/>
<path d="M66.1822 19.3951V59.5754C66.1822 59.7532 66.0381 59.8973 65.8604 59.8973H55.9851C55.8073 59.8973 55.6633 59.7532 55.6633 59.5754V42.0477C55.6633 41.342 54.8324 40.9645 54.3009 41.4286L28.8943 63.6144C28.7536 63.7373 28.5381 63.715 28.4257 63.5658L20.5415 53.1109C20.4394 52.9755 20.4599 52.7842 20.5883 52.6735L45.3032 31.3513C45.8799 30.8538 45.528 29.9073 44.7663 29.9073H25.3659C25.1882 29.9073 25.0441 29.7632 25.0441 29.5854V19.3951C25.0441 19.2173 25.1882 19.0732 25.3659 19.0732H65.8604C66.0381 19.0732 66.1822 19.2173 66.1822 19.3951Z" stroke="white" stroke-opacity="0.5" stroke-width="0.5"/>
</svg>
