<svg width="1078" height="1078" viewBox="0 0 1078 1078" fill="none" xmlns="http://www.w3.org/2000/svg">
<circle cx="539.156" cy="534.227" r="332.087" fill="#CAD2ED"/>
<circle cx="539.156" cy="534.227" r="211.002" fill="#FDF3F3" fill-opacity="0.7"/>
<path d="M349.967 729.085C454.487 833.605 623.947 833.605 728.467 729.085C832.987 624.565 832.987 455.105 728.467 350.585C623.947 246.065 454.487 246.065 349.967 350.585C245.447 455.105 245.447 624.565 349.967 729.085Z" fill="#6765D3" fill-opacity="0.1"/>
<path d="M343.873 996.707C448.393 1101.23 617.854 1101.23 722.373 996.707C826.893 892.187 826.893 722.727 722.373 618.207C617.853 513.687 448.393 513.687 343.873 618.207C239.353 722.727 239.353 892.187 343.873 996.707Z" fill="#6765D3" fill-opacity="0.1"/>
<path d="M358.082 459.412C462.602 563.932 632.062 563.932 736.582 459.412C841.102 354.892 841.102 185.432 736.582 80.9117C632.062 -23.6082 462.602 -23.6082 358.082 80.9117C253.562 185.432 253.562 354.892 358.082 459.412Z" fill="#6765D3" fill-opacity="0.1"/>
<path d="M618.406 733.127C722.926 837.647 892.386 837.647 996.906 733.127C1101.43 628.607 1101.43 459.147 996.906 354.627C892.386 250.107 722.926 250.107 618.406 354.627C513.886 459.147 513.886 628.608 618.406 733.127Z" fill="#6765D3" fill-opacity="0.1"/>
<path d="M579.55 867.965C684.07 972.485 853.531 972.485 958.05 867.965C1062.57 763.445 1062.57 593.985 958.05 489.465C853.531 384.945 684.07 384.945 579.55 489.465C475.03 593.985 475.03 763.445 579.55 867.965Z" fill="#6765D3" fill-opacity="0.1"/>
<path d="M474.15 965.679C578.669 1070.2 748.13 1070.2 852.65 965.679C957.17 861.159 957.17 691.698 852.65 587.179C748.13 482.659 578.669 482.659 474.15 587.179C369.63 691.698 369.63 861.159 474.15 965.679Z" fill="#6765D3" fill-opacity="0.1"/>
<path d="M208.535 957.406C313.055 1061.93 482.515 1061.93 587.035 957.406C691.555 852.886 691.555 683.426 587.035 578.906C482.515 474.386 313.054 474.386 208.535 578.906C104.015 683.426 104.015 852.886 208.535 957.406Z" fill="#6765D3" fill-opacity="0.1"/>
<path d="M114.791 854.056C219.311 958.576 388.771 958.576 493.291 854.056C597.811 749.536 597.811 580.076 493.291 475.556C388.771 371.036 219.311 371.036 114.791 475.556C10.2708 580.076 10.2709 749.536 114.791 854.056Z" fill="#6765D3" fill-opacity="0.1"/>
<path d="M120.713 588.097C225.233 692.617 394.693 692.617 499.213 588.097C603.733 483.577 603.733 314.116 499.213 209.597C394.693 105.077 225.233 105.077 120.713 209.597C16.1929 314.116 16.193 483.577 120.713 588.097Z" fill="#6765D3" fill-opacity="0.1"/>
<path d="M222.184 492.159C326.704 596.679 496.164 596.679 600.684 492.159C705.204 387.639 705.204 218.179 600.684 113.659C496.164 9.13921 326.704 9.13918 222.184 113.659C117.664 218.179 117.664 387.639 222.184 492.159Z" fill="#6765D3" fill-opacity="0.1"/>
<path d="M489.822 498.325C594.342 602.845 763.802 602.845 868.322 498.325C972.842 393.805 972.842 224.345 868.322 119.825C763.802 15.3053 594.342 15.3053 489.822 119.825C385.302 224.345 385.302 393.805 489.822 498.325Z" fill="#6765D3" fill-opacity="0.1"/>
<path d="M584.396 602.363C688.916 706.883 858.376 706.883 962.896 602.363C1067.42 497.843 1067.42 328.382 962.896 223.863C858.376 119.343 688.916 119.343 584.396 223.863C479.876 328.382 479.876 497.843 584.396 602.363Z" fill="#6765D3" fill-opacity="0.1"/>
<path d="M82.3294 720.969C186.849 825.489 356.31 825.489 460.829 720.969C565.349 616.449 565.349 446.988 460.829 342.469C356.31 237.949 186.849 237.949 82.3294 342.469C-22.1906 446.988 -22.1905 616.449 82.3294 720.969Z" fill="#6765D3" fill-opacity="0.1"/>
<g filter="url(#filter0_b_1252_54723)">
<path fill-rule="evenodd" clip-rule="evenodd" d="M540.602 538.098C540.22 538.089 539.839 538.08 539.458 538.07L539.458 538.044C539.764 537.876 540.069 537.708 540.374 537.539C540.669 537.376 540.963 537.212 541.257 537.048C541.038 537.397 540.819 537.747 540.602 538.098ZM541.513 538.117C541.209 538.111 540.906 538.105 540.602 538.098L540.468 538.315L540.358 538.491L540.227 538.703C539.969 538.548 539.711 538.391 539.454 538.235L539.458 538.07L539.413 538.068L539.458 538.044C539.475 537.326 539.494 536.609 539.516 535.891C563.019 496.375 575.462 452.109 576.844 407.563C587.997 388.81 601.642 371.128 617.777 354.993C635.606 337.163 655.325 322.375 676.29 310.628C676.964 311.033 677.636 311.442 678.307 311.853C676.826 358.345 663.296 404.524 637.717 445.307C616.647 457.079 596.83 471.92 578.92 489.83C564.329 504.421 551.775 520.278 541.257 537.048C562.327 525.276 582.144 510.435 600.054 492.524C614.646 477.933 627.2 462.076 637.717 445.307C679.671 421.867 726.593 410.595 773.325 411.489C773.475 411.762 773.624 412.035 773.773 412.308C763.224 429.17 750.617 445.113 735.953 459.777C715.459 480.271 692.468 496.747 667.959 509.204C624.602 508.368 581.08 518.006 541.513 538.117ZM540.291 538.742L540.227 538.703L540.162 538.808L540.064 538.859L539.802 538.994L539.583 539.108L539.441 538.843C539.445 538.641 539.449 538.438 539.454 538.235L539.291 538.135L539.413 538.068L539.17 538.062L538.947 537.925C538.844 537.736 538.741 537.546 538.638 537.357C538.933 536.869 539.225 536.381 539.516 535.891C540.898 491.346 553.341 447.079 576.844 407.563C578.281 361.252 567.763 314.639 545.291 272.748L545.355 272.645C590.819 273.788 636.048 286.449 676.29 310.628C676.412 310.56 676.535 310.491 676.658 310.423C676.796 310.345 676.934 310.268 677.073 310.191C677.505 309.951 677.939 309.711 678.373 309.473C678.354 310.267 678.333 311.06 678.307 311.853C695.932 322.657 712.577 335.69 727.837 350.95C746.24 369.353 761.403 389.769 773.325 411.489C773.641 411.495 773.956 411.502 774.271 411.509C774.159 411.689 774.047 411.87 773.935 412.05L773.773 412.308C796.146 453.41 806.952 499.136 806.19 544.705C804.441 545.655 802.685 546.584 800.921 547.492C760.102 522.856 714.124 510.094 667.959 509.204C628.393 529.315 584.871 538.953 541.513 538.117C541.105 538.324 540.698 538.533 540.291 538.742ZM543.059 540.39C542.593 540.116 542.128 539.841 541.664 539.565C541.205 539.292 540.748 539.018 540.291 538.742L540.162 538.808L540.089 538.928C539.983 539.1 539.877 539.272 539.772 539.444L539.766 539.453L539.583 539.108L539.434 539.185L539.437 539.063L539.441 538.843C539.332 538.64 539.222 538.436 539.113 538.233L539.291 538.135L539.17 538.062L539.018 538.057L538.947 537.925C538.808 537.841 538.67 537.756 538.532 537.671C538.533 537.623 538.534 537.576 538.534 537.529L538.638 537.357C538.606 537.297 538.574 537.238 538.541 537.179C539.414 491.035 528.425 444.709 505.574 403.165C507.314 357.755 520.553 312.702 545.291 272.748L545.234 272.642L545.355 272.645C556.023 255.432 568.827 239.167 583.766 224.228C602.931 205.063 624.279 189.412 647.01 177.275C668.964 218.397 679.419 264.043 678.373 309.473C720.494 286.366 767.516 275.442 814.272 276.7C813.196 323.604 799.863 370.279 774.271 411.509C820.153 412.549 865.819 425.318 906.385 449.817C895.66 467.199 882.763 483.62 867.692 498.691C849.017 517.365 828.27 532.703 806.19 544.705C806.156 546.687 806.101 548.67 806.024 550.652C804.332 549.578 802.631 548.525 800.921 547.492C759.397 568.869 713.452 578.663 667.877 576.873C629.346 554.251 586.37 542.09 543.059 540.39ZM540.212 540.293C540.064 540.013 539.915 539.733 539.766 539.453C539.651 539.642 539.535 539.831 539.42 540.02L539.424 539.753L539.426 539.618C539.429 539.474 539.431 539.329 539.434 539.185C539.117 539.35 538.799 539.516 538.482 539.682C538.493 539.308 538.503 538.934 538.512 538.56C538.712 538.451 538.912 538.342 539.113 538.233L539.018 538.057C538.853 538.053 538.688 538.048 538.524 538.043C538.526 537.919 538.529 537.795 538.532 537.671C538.511 537.658 538.491 537.646 538.471 537.634L538.481 537.617L538.534 537.529C538.537 537.412 538.539 537.295 538.541 537.179C534.634 530.007 530.374 522.977 525.762 516.113C510.834 480.11 504.104 441.51 505.574 403.165C493.668 381.523 478.544 361.178 460.2 342.834C445.262 327.896 428.997 315.093 411.785 304.424C453.25 282.104 499.36 271.509 545.234 272.642C533.14 250.122 517.59 228.968 498.583 209.962C483.395 194.774 466.836 181.793 449.304 171.019C460.261 152.913 473.557 135.825 489.192 120.19C507.658 101.724 528.151 86.5207 549.955 74.5796C567.791 85.4516 584.63 98.5998 600.054 114.024C619.221 133.191 634.873 154.542 647.01 177.275C689.491 154.593 736.802 144.185 783.715 146.05C805.115 186.767 815.3 231.838 814.272 276.7C860.06 277.932 905.593 290.849 946.015 315.449C944.972 362.179 931.762 408.688 906.385 449.817C924.568 460.798 941.726 474.136 957.42 489.83C975.864 508.273 991.053 528.739 1002.99 550.513C991.873 569.133 978.299 586.695 962.266 602.728C942.961 622.033 921.439 637.773 898.521 649.947C886.449 627.53 870.948 606.472 852.02 587.544C837.784 573.307 822.342 561.01 806.024 550.652C804.287 595.392 791.387 639.779 767.325 679.281C755.388 657.497 740.194 637.023 721.744 618.572C705.237 602.066 687.111 588.166 667.877 576.873C624.566 575.173 581.589 563.012 543.059 540.39C542.667 540.374 542.275 540.36 541.884 540.346C541.326 540.327 540.769 540.309 540.212 540.293ZM541.737 543.227C541.235 542.247 540.727 541.268 540.212 540.293C539.946 540.285 539.681 540.278 539.416 540.271L539.42 540.02L539.269 540.268C539.002 540.261 538.734 540.255 538.466 540.249C538.471 540.06 538.477 539.871 538.482 539.682C538.137 539.863 537.792 540.045 537.447 540.228L537.281 540.225L537.21 540.224L537.058 539.941C537.242 539.644 537.426 539.347 537.609 539.049C537.91 538.887 538.211 538.724 538.512 538.56C538.516 538.388 538.52 538.215 538.524 538.043C538.425 538.04 538.327 538.037 538.229 538.034L538.315 537.891C538.367 537.805 538.419 537.719 538.471 537.634C537.166 536.831 535.866 536.017 534.571 535.19C531.372 528.926 528.435 522.561 525.762 516.113C516.232 501.931 505.198 488.459 492.661 475.921C477.335 460.596 460.614 447.518 442.906 436.686C420.77 395.752 410.081 350.266 410.839 304.936C411.154 304.765 411.47 304.594 411.785 304.424C411.477 304.233 411.168 304.043 410.86 303.854C411.817 257.721 424.632 211.788 449.304 171.019C408.999 146.25 363.553 133.145 317.807 131.705C328.718 113.747 341.933 96.7963 357.452 81.2769C375.884 62.8453 396.335 47.664 418.093 35.7331C463.928 36.9741 509.505 49.923 549.955 74.5796C592.12 51.4879 639.186 40.5967 685.974 41.9059C703.765 52.7636 720.563 65.8872 735.953 81.2769C755.547 100.871 771.468 122.747 783.715 146.05C830.189 147.898 876.273 161.791 916.886 187.728C937.283 227.665 946.992 271.654 946.015 315.449C963.911 326.34 980.805 339.521 996.277 354.993C1014.11 372.83 1028.91 392.558 1040.66 413.532C1040.65 460.995 1028.09 508.456 1002.99 550.513C1025.56 591.704 1036.49 637.577 1035.78 683.302C1024.89 701.172 1011.73 718.042 996.277 733.493C976.363 753.406 954.092 769.526 930.362 781.851C931.214 736.485 920.601 690.944 898.521 649.947C857.976 671.484 813.058 681.86 768.299 681.077C768.174 680.844 768.048 680.611 767.922 680.378C767.724 680.012 767.525 679.646 767.325 679.281C766.968 679.866 766.609 680.45 766.248 681.033C719.848 679.866 673.693 666.703 632.835 641.541C620.772 619.174 605.296 598.162 586.405 579.271C572.555 565.421 557.565 553.407 541.737 543.227ZM550.665 562.536C547.958 556.009 544.982 549.567 541.737 543.227C540.959 542.727 540.18 542.232 539.398 541.74C539.403 541.251 539.409 540.761 539.416 540.271L539.269 540.268C539.065 540.604 538.862 540.94 538.659 541.277C538.585 541.231 538.511 541.185 538.437 541.139C538.447 540.842 538.457 540.545 538.466 540.249C538.126 540.241 537.787 540.234 537.447 540.228L537.265 540.325L537.21 540.224L536.948 540.219L536.903 540.191L537.058 539.941C536.975 539.787 536.893 539.632 536.81 539.477C537.076 539.335 537.343 539.192 537.609 539.049C537.816 538.711 538.023 538.372 538.229 538.034C537.487 538.01 536.745 537.984 536.003 537.954C535.52 537.035 535.043 536.114 534.571 535.19C518.481 524.914 503.249 512.748 489.192 498.691C470.376 479.875 454.947 458.954 442.906 436.686C402.749 412.125 357.519 399.119 311.988 397.668C322.441 381.083 334.891 365.396 349.337 350.95C368.012 332.275 388.759 316.937 410.839 304.936C410.845 304.575 410.852 304.214 410.86 303.854C370.483 279.056 324.95 265.96 279.128 264.568C280.15 218.409 293.043 172.465 317.807 131.705C271.33 130.242 224.545 140.82 182.529 163.438C193.319 145.856 206.327 129.251 221.554 114.024C275.668 59.9103 347.19 33.8132 418.093 35.7331C501.553 -10.0308 604.245 -7.97321 685.974 41.9059C751.937 43.7516 817.348 69.8465 867.692 120.19C888.059 140.557 904.457 163.39 916.886 187.728C932.977 198.004 948.209 210.171 962.266 224.228C1014.54 276.502 1040.67 345.019 1040.66 413.532C1087.58 497.292 1085.95 600.92 1035.78 683.302C1034.73 750.383 1008.61 817.144 957.42 868.33C937.303 888.447 914.78 904.692 890.778 917.065C916.285 875.683 929.479 828.861 930.362 781.851C889.719 802.962 844.795 812.943 800.104 811.794C800.767 766.825 790.166 721.721 768.299 681.077C767.616 681.065 766.932 681.05 766.248 681.033C755.58 698.246 742.776 714.511 727.837 729.45C710.008 747.279 690.289 762.068 669.324 773.814C667.803 772.9 666.29 771.97 664.783 771.023C665.197 726.455 654.548 681.804 632.835 641.541C615.381 630.793 598.893 617.855 583.766 602.728C571.228 590.19 560.195 576.718 550.665 562.536ZM570.996 670.57C571.733 633.847 564.956 597.001 550.665 562.536C546.637 556.541 542.877 550.42 539.387 544.188C539.387 543.372 539.391 542.556 539.398 541.74C539.152 541.586 538.906 541.431 538.659 541.277C538.579 541.411 538.499 541.544 538.419 541.678C538.425 541.498 538.431 541.319 538.437 541.139C538.349 541.084 538.26 541.029 538.172 540.974C537.894 540.802 537.615 540.629 537.336 540.457L537.265 540.325L537.187 540.366L536.948 540.219L536.887 540.218L536.903 540.191C536.681 540.055 536.458 539.919 536.235 539.783C536.427 539.681 536.618 539.579 536.81 539.477C536.539 538.97 536.27 538.463 536.003 537.954C534.986 537.914 533.969 537.868 532.952 537.816C495.26 515.594 453.291 503.399 410.905 501.232C391.825 489.983 373.84 476.165 357.452 459.777C338.818 441.143 323.507 420.445 311.517 398.419C311.673 398.168 311.831 397.918 311.988 397.668C311.691 397.658 311.393 397.649 311.095 397.641C288.771 356.303 278.116 310.33 279.128 264.568C232.415 263.149 185.401 273.892 143.242 296.798C144.357 250.43 157.453 204.296 182.529 163.438C160.096 175.513 139.024 191.022 120.083 209.962C69.2081 260.837 43.0965 327.098 41.7484 393.767C-7.44406 475.139 -9.42062 577.054 35.8187 660.076C34.4908 730.259 60.6047 800.865 114.16 854.421C128.01 868.271 143 880.286 158.828 890.465C171.243 914.716 187.602 937.469 207.905 957.771C259.032 1008.9 325.697 1035.02 392.7 1036.12C473.445 1085.66 574.78 1088.41 657.816 1044.39C727.953 1045.68 798.5 1019.56 852.02 966.044C867.121 950.943 880.04 934.486 890.778 917.065C850.371 937.895 805.77 947.752 761.394 946.635C786.51 905.293 799.414 858.617 800.104 811.794C754.692 810.626 709.52 797.966 669.324 773.814C667.783 774.678 666.235 775.525 664.681 776.356C664.732 774.578 664.766 772.801 664.783 771.023C648.092 760.533 632.307 748.023 617.777 733.493C598.702 714.418 583.109 693.181 570.996 670.57ZM531.814 804.798C557 763.675 570.061 717.221 570.996 670.57C549.915 631.216 539.378 587.701 539.387 544.188C539.196 543.847 539.006 543.506 538.816 543.165C538.674 542.909 538.533 542.653 538.392 542.396C538.401 542.157 538.41 541.917 538.419 541.678C538.345 541.8 538.272 541.923 538.199 542.045C537.909 541.516 537.622 540.987 537.336 540.457L537.187 540.366L536.898 540.52L536.814 540.565L536.744 540.602L536.6 540.679C536.696 540.526 536.791 540.372 536.887 540.218C536.408 540.21 535.928 540.204 535.449 540.199C535.711 540.06 535.973 539.922 536.235 539.783C535.144 539.119 534.05 538.463 532.952 537.816C490.566 535.649 448.597 523.454 410.905 501.232C363.206 498.793 314.979 509.053 271.724 532.012C271.51 531.882 271.297 531.752 271.084 531.621C272.563 485.225 286.04 439.14 311.517 398.419C311.376 398.16 311.235 397.9 311.095 397.641C264.322 396.306 217.266 407.163 175.102 430.213C152.759 388.764 142.139 342.666 143.242 296.798C121.147 308.803 100.385 324.148 81.6995 342.834C66.0347 358.499 52.7177 375.622 41.7484 393.767C40.8212 439.618 51.6069 485.662 74.1055 527.026C49.455 567.872 36.6927 613.882 35.8187 660.076C47.8003 682.065 63.0939 702.728 81.6995 721.334C96.5082 736.143 112.62 748.853 129.667 759.466C128.157 804.349 137.877 849.541 158.828 890.465C200.482 917.253 247.939 931.331 295.692 932.701C307.912 955.853 323.762 977.591 343.243 997.072C358.483 1012.31 375.102 1025.33 392.7 1036.12C437.4 1036.86 482.251 1026.47 522.737 1004.95C564.091 1030.38 610.862 1043.52 657.816 1044.39C680.803 1032.2 702.387 1016.43 721.744 997.072C737.266 981.55 750.483 964.596 761.394 946.635C714.495 945.454 667.847 932.017 626.666 906.323C650.695 866.372 663.367 821.498 664.681 776.356C623.85 798.176 578.552 808.654 533.432 807.791C532.886 806.796 532.347 805.798 531.814 804.798ZM530.009 807.703C530.618 806.738 531.22 805.77 531.814 804.798C509.417 762.725 499.046 715.931 500.701 669.486C524.136 630.366 536.7 586.551 538.392 542.396C538.328 542.279 538.263 542.162 538.199 542.045C514.778 581.284 502.279 625.226 500.701 669.486C489.628 687.97 476.127 705.406 460.2 721.334C441.259 740.275 420.185 755.783 397.752 767.859C396.943 767.358 396.137 766.852 395.333 766.342C397.106 720.699 410.496 675.423 435.503 635.327C458.173 623.202 479.465 607.581 498.583 588.462C513.339 573.707 526.011 557.657 536.6 540.679C513.93 552.803 492.639 568.425 473.52 587.544C458.765 602.299 446.092 618.348 435.503 635.327C394.882 657.052 349.837 667.548 304.94 666.816C315.587 649.667 328.355 633.461 343.243 618.572C362.79 599.025 384.609 583.134 407.849 570.898C451.707 571.38 495.662 561.146 535.449 540.199C491.59 539.717 447.636 549.95 407.849 570.898C360.584 570.38 313.431 557.418 271.724 532.012C271.503 532.13 271.282 532.247 271.061 532.365L271.073 531.979L271.084 531.621C253.459 520.817 236.814 507.785 221.554 492.525C202.651 473.622 187.167 452.595 175.102 430.213C153.231 442.169 132.677 457.405 114.16 475.921C98.4462 491.635 85.0945 508.817 74.1055 527.026C86.1015 549.081 101.427 569.806 120.083 588.462C135.335 603.714 151.97 616.74 169.585 627.541C144.518 667.926 131.212 713.535 129.667 759.466C171.029 785.216 217.892 798.613 264.977 799.658C263.592 845.324 273.831 891.277 295.692 932.701C340.591 933.988 385.752 924.04 426.598 902.857C438.73 925.566 454.371 946.895 473.52 966.044C488.69 981.214 505.228 994.182 522.737 1004.95C545.626 992.781 567.121 977.055 586.405 957.771C602.217 941.958 615.638 924.659 626.666 906.323C609.701 895.739 593.665 883.074 578.92 868.33C560.517 849.927 545.355 829.511 533.432 807.791C532.291 807.769 531.15 807.74 530.009 807.703ZM530.009 807.703C519.556 824.288 507.107 839.975 492.661 854.421C472.705 874.376 450.383 890.521 426.598 902.857C404.395 861.297 393.941 815.111 395.237 769.196C396.077 768.755 396.915 768.31 397.752 767.859C438.241 792.955 483.972 806.236 530.009 807.703ZM303.756 668.741C304.148 668.098 304.543 667.456 304.94 666.816C304.189 666.804 303.438 666.788 302.687 666.77C280.259 625.007 269.717 578.545 271.061 532.365C248.363 544.495 227.045 560.131 207.905 579.271C193.008 594.167 180.235 610.383 169.585 627.541C210.372 652.551 256.409 665.627 302.687 666.77C303.04 667.428 303.397 668.085 303.756 668.741ZM303.756 668.741C279.284 708.916 266.358 754.144 264.977 799.658C309.704 800.65 354.631 790.496 395.237 769.196C395.264 768.244 395.296 767.293 395.333 766.342C379.015 755.984 363.574 743.686 349.337 729.45C330.886 710.999 315.693 690.525 303.756 668.741Z" fill="white" fill-opacity="0.1"/>
</g>
<path d="M538.988 1075.95C835.443 1075.95 1075.77 835.63 1075.77 539.175C1075.77 242.719 835.443 2.39478 538.988 2.39478C242.533 2.39478 2.20801 242.719 2.20801 539.175C2.20801 835.63 242.533 1075.95 538.988 1075.95Z" stroke="#D6D6F3" stroke-width="3" stroke-miterlimit="10"/>
<path d="M538.989 808.315C687.631 808.315 808.129 687.817 808.129 539.175C808.129 390.533 687.631 270.035 538.989 270.035C390.347 270.035 269.849 390.533 269.849 539.175C269.849 687.817 390.347 808.315 538.989 808.315Z" stroke="#D6D6F3" stroke-width="3" stroke-miterlimit="10"/>
<path d="M723.917 1001.86C872.559 1001.86 993.057 881.363 993.057 732.722C993.057 584.08 872.559 463.582 723.917 463.582C575.275 463.582 454.777 584.08 454.777 732.722C454.777 881.363 575.275 1001.86 723.917 1001.86Z" stroke="#D6D6F3" stroke-width="3" stroke-miterlimit="10"/>
<path d="M354.039 611.889C502.681 611.889 623.179 491.391 623.179 342.749C623.179 194.107 502.681 73.6089 354.039 73.6089C205.398 73.6089 84.8994 194.107 84.8994 342.749C84.8994 491.391 205.398 611.889 354.039 611.889Z" stroke="#D6D6F3" stroke-width="3" stroke-miterlimit="10"/>
<path d="M731.662 621.358C880.304 621.358 1000.8 500.86 1000.8 352.218C1000.8 203.576 880.304 83.0781 731.662 83.0781C583.021 83.0781 462.522 203.576 462.522 352.218C462.522 500.86 583.021 621.358 731.662 621.358Z" stroke="#D6D6F3" stroke-width="3" stroke-miterlimit="10"/>
<path d="M799.532 744.178C948.174 744.178 1068.67 623.68 1068.67 475.038C1068.67 326.396 948.174 205.898 799.532 205.898C650.89 205.898 530.392 326.396 530.392 475.038C530.392 623.68 650.89 744.178 799.532 744.178Z" stroke="#D6D6F3" stroke-width="3" stroke-miterlimit="10"/>
<path d="M794.096 887.802C942.738 887.802 1063.24 767.304 1063.24 618.662C1063.24 470.02 942.738 349.522 794.096 349.522C645.454 349.522 524.956 470.02 524.956 618.662C524.956 767.304 645.454 887.802 794.096 887.802Z" stroke="#D6D6F3" stroke-width="3" stroke-miterlimit="10"/>
<path d="M600.428 1069.77C749.07 1069.77 869.568 949.272 869.568 800.63C869.568 651.988 749.07 531.49 600.428 531.49C451.786 531.49 331.288 651.988 331.288 800.63C331.288 949.272 451.786 1069.77 600.428 1069.77Z" stroke="#D6D6F3" stroke-width="3" stroke-miterlimit="10"/>
<path d="M461.062 1062.98C609.704 1062.98 730.202 942.479 730.202 793.838C730.202 645.196 609.704 524.698 461.062 524.698C312.42 524.698 191.922 645.196 191.922 793.838C191.922 942.479 312.42 1062.98 461.062 1062.98Z" stroke="#D6D6F3" stroke-width="3" stroke-miterlimit="10"/>
<path d="M277.188 870.728C425.83 870.728 546.328 750.23 546.328 601.588C546.328 452.946 425.83 332.448 277.188 332.448C128.546 332.448 8.04785 452.946 8.04785 601.588C8.04785 750.23 128.546 870.728 277.188 870.728Z" stroke="#D6D6F3" stroke-width="3" stroke-miterlimit="10"/>
<path d="M281.101 731.139C429.743 731.139 550.241 610.641 550.241 461.999C550.241 313.357 429.743 192.859 281.101 192.859C132.459 192.859 11.9609 313.357 11.9609 461.999C11.9609 610.641 132.459 731.139 281.101 731.139Z" stroke="#D6D6F3" stroke-width="3" stroke-miterlimit="10"/>
<path d="M474.709 546.251C623.351 546.251 743.849 425.753 743.849 277.111C743.849 128.469 623.351 7.97095 474.709 7.97095C326.067 7.97095 205.569 128.469 205.569 277.111C205.569 425.753 326.067 546.251 474.709 546.251Z" stroke="#D6D6F3" stroke-width="3" stroke-miterlimit="10"/>
<path d="M615.149 552.943C763.791 552.943 884.289 432.445 884.289 283.803C884.289 135.161 763.791 14.6626 615.149 14.6626C466.507 14.6626 346.009 135.161 346.009 283.803C346.009 432.445 466.507 552.943 615.149 552.943Z" stroke="#D6D6F3" stroke-width="3" stroke-miterlimit="10"/>
<path d="M344.001 991.824C492.643 991.824 613.141 871.326 613.141 722.684C613.141 574.042 492.643 453.544 344.001 453.544C195.359 453.544 74.8613 574.042 74.8613 722.684C74.8613 871.326 195.359 991.824 344.001 991.824Z" stroke="#D6D6F3" stroke-width="3" stroke-miterlimit="10"/>
<g filter="url(#filter1_f_1252_54723)">
<circle cx="538.402" cy="538.268" r="54.473" fill="#AEAAE3"/>
</g>
<defs>
<filter id="filter0_b_1252_54723" x="-66.6904" y="-67.113" width="1211.36" height="1212.58" filterUnits="userSpaceOnUse" color-interpolation-filters="sRGB">
<feFlood flood-opacity="0" result="BackgroundImageFix"/>
<feGaussianBlur in="BackgroundImageFix" stdDeviation="35"/>
<feComposite in2="SourceAlpha" operator="in" result="effect1_backgroundBlur_1252_54723"/>
<feBlend mode="normal" in="SourceGraphic" in2="effect1_backgroundBlur_1252_54723" result="shape"/>
</filter>
<filter id="filter1_f_1252_54723" x="447.929" y="447.795" width="180.946" height="180.946" filterUnits="userSpaceOnUse" color-interpolation-filters="sRGB">
<feFlood flood-opacity="0" result="BackgroundImageFix"/>
<feBlend mode="normal" in="SourceGraphic" in2="BackgroundImageFix" result="shape"/>
<feGaussianBlur stdDeviation="18" result="effect1_foregroundBlur_1252_54723"/>
</filter>
</defs>
</svg>
