<svg width="696" height="423" viewBox="0 0 696 423" fill="none" xmlns="http://www.w3.org/2000/svg">
<g filter="url(#filter0_d_2_17)">
<rect x="551" y="166.758" width="100" height="29.615" rx="14.8075" fill="white"/>
</g>
<path d="M583.424 187.098C582.705 187.098 582.061 186.981 581.492 186.748C580.923 186.515 580.465 186.169 580.12 185.712C579.784 185.255 579.607 184.704 579.588 184.06H582.136C582.173 184.424 582.299 184.704 582.514 184.9C582.729 185.087 583.009 185.18 583.354 185.18C583.709 185.18 583.989 185.101 584.194 184.942C584.399 184.774 584.502 184.545 584.502 184.256C584.502 184.013 584.418 183.813 584.25 183.654C584.091 183.495 583.891 183.365 583.648 183.262C583.415 183.159 583.079 183.043 582.64 182.912C582.005 182.716 581.487 182.52 581.086 182.324C580.685 182.128 580.339 181.839 580.05 181.456C579.761 181.073 579.616 180.574 579.616 179.958C579.616 179.043 579.947 178.329 580.61 177.816C581.273 177.293 582.136 177.032 583.2 177.032C584.283 177.032 585.155 177.293 585.818 177.816C586.481 178.329 586.835 179.048 586.882 179.972H584.292C584.273 179.655 584.157 179.407 583.942 179.23C583.727 179.043 583.452 178.95 583.116 178.95C582.827 178.95 582.593 179.029 582.416 179.188C582.239 179.337 582.15 179.557 582.15 179.846C582.15 180.163 582.299 180.411 582.598 180.588C582.897 180.765 583.363 180.957 583.998 181.162C584.633 181.377 585.146 181.582 585.538 181.778C585.939 181.974 586.285 182.259 586.574 182.632C586.863 183.005 587.008 183.486 587.008 184.074C587.008 184.634 586.863 185.143 586.574 185.6C586.294 186.057 585.883 186.421 585.342 186.692C584.801 186.963 584.161 187.098 583.424 187.098ZM593.255 187L590.875 183.724V187H588.481V176.64H590.875V182.366L593.241 179.188H596.195L592.947 183.108L596.223 187H593.255ZM598.34 178.376C597.92 178.376 597.574 178.255 597.304 178.012C597.042 177.76 596.912 177.452 596.912 177.088C596.912 176.715 597.042 176.407 597.304 176.164C597.574 175.912 597.92 175.786 598.34 175.786C598.75 175.786 599.086 175.912 599.348 176.164C599.618 176.407 599.754 176.715 599.754 177.088C599.754 177.452 599.618 177.76 599.348 178.012C599.086 178.255 598.75 178.376 598.34 178.376ZM599.53 179.188V187H597.136V179.188H599.53ZM603.658 176.64V187H601.264V176.64H603.658ZM607.787 176.64V187H605.393V176.64H607.787ZM612.7 187.112C612.019 187.112 611.412 186.995 610.88 186.762C610.348 186.529 609.928 186.211 609.62 185.81C609.312 185.399 609.14 184.942 609.102 184.438H611.468C611.496 184.709 611.622 184.928 611.846 185.096C612.07 185.264 612.346 185.348 612.672 185.348C612.971 185.348 613.2 185.292 613.358 185.18C613.526 185.059 613.61 184.905 613.61 184.718C613.61 184.494 613.494 184.331 613.26 184.228C613.027 184.116 612.649 183.995 612.126 183.864C611.566 183.733 611.1 183.598 610.726 183.458C610.353 183.309 610.031 183.08 609.76 182.772C609.49 182.455 609.354 182.03 609.354 181.498C609.354 181.05 609.476 180.644 609.718 180.28C609.97 179.907 610.334 179.613 610.81 179.398C611.296 179.183 611.87 179.076 612.532 179.076C613.512 179.076 614.282 179.319 614.842 179.804C615.412 180.289 615.738 180.933 615.822 181.736H613.61C613.573 181.465 613.452 181.251 613.246 181.092C613.05 180.933 612.789 180.854 612.462 180.854C612.182 180.854 611.968 180.91 611.818 181.022C611.669 181.125 611.594 181.269 611.594 181.456C611.594 181.68 611.711 181.848 611.944 181.96C612.187 182.072 612.56 182.184 613.064 182.296C613.643 182.445 614.114 182.595 614.478 182.744C614.842 182.884 615.16 183.117 615.43 183.444C615.71 183.761 615.855 184.191 615.864 184.732C615.864 185.189 615.734 185.6 615.472 185.964C615.22 186.319 614.852 186.599 614.366 186.804C613.89 187.009 613.335 187.112 612.7 187.112Z" fill="#808080"/>
<g filter="url(#filter1_d_2_17)">
<rect x="59" y="184.758" width="100" height="29.615" rx="14.8075" fill="white"/>
</g>
<path d="M71.986 203.264H68.318L67.73 205H65.224L68.78 195.172H71.552L75.108 205H72.574L71.986 203.264ZM71.37 201.416L70.152 197.818L68.948 201.416H71.37ZM79.3683 205.112C78.6869 205.112 78.0803 204.995 77.5483 204.762C77.0163 204.529 76.5963 204.211 76.2883 203.81C75.9803 203.399 75.8076 202.942 75.7703 202.438H78.1363C78.1643 202.709 78.2903 202.928 78.5143 203.096C78.7383 203.264 79.0136 203.348 79.3403 203.348C79.6389 203.348 79.8676 203.292 80.0263 203.18C80.1943 203.059 80.2783 202.905 80.2783 202.718C80.2783 202.494 80.1616 202.331 79.9283 202.228C79.6949 202.116 79.3169 201.995 78.7943 201.864C78.2343 201.733 77.7676 201.598 77.3943 201.458C77.0209 201.309 76.6989 201.08 76.4283 200.772C76.1576 200.455 76.0223 200.03 76.0223 199.498C76.0223 199.05 76.1436 198.644 76.3863 198.28C76.6383 197.907 77.0023 197.613 77.4783 197.398C77.9636 197.183 78.5376 197.076 79.2003 197.076C80.1803 197.076 80.9503 197.319 81.5103 197.804C82.0796 198.289 82.4063 198.933 82.4903 199.736H80.2783C80.2409 199.465 80.1196 199.251 79.9143 199.092C79.7183 198.933 79.4569 198.854 79.1303 198.854C78.8503 198.854 78.6356 198.91 78.4863 199.022C78.3369 199.125 78.2623 199.269 78.2623 199.456C78.2623 199.68 78.3789 199.848 78.6123 199.96C78.8549 200.072 79.2283 200.184 79.7323 200.296C80.3109 200.445 80.7823 200.595 81.1463 200.744C81.5103 200.884 81.8276 201.117 82.0983 201.444C82.3783 201.761 82.5229 202.191 82.5323 202.732C82.5323 203.189 82.4016 203.6 82.1403 203.964C81.8883 204.319 81.5196 204.599 81.0343 204.804C80.5583 205.009 80.0029 205.112 79.3683 205.112ZM87.1749 205.112C86.4936 205.112 85.8869 204.995 85.3549 204.762C84.8229 204.529 84.4029 204.211 84.0949 203.81C83.7869 203.399 83.6142 202.942 83.5769 202.438H85.9429C85.9709 202.709 86.0969 202.928 86.3209 203.096C86.5449 203.264 86.8202 203.348 87.1469 203.348C87.4456 203.348 87.6742 203.292 87.8329 203.18C88.0009 203.059 88.0849 202.905 88.0849 202.718C88.0849 202.494 87.9682 202.331 87.7349 202.228C87.5016 202.116 87.1236 201.995 86.6009 201.864C86.0409 201.733 85.5742 201.598 85.2009 201.458C84.8276 201.309 84.5056 201.08 84.2349 200.772C83.9642 200.455 83.8289 200.03 83.8289 199.498C83.8289 199.05 83.9502 198.644 84.1929 198.28C84.4449 197.907 84.8089 197.613 85.2849 197.398C85.7702 197.183 86.3442 197.076 87.0069 197.076C87.9869 197.076 88.7569 197.319 89.3169 197.804C89.8862 198.289 90.2129 198.933 90.2969 199.736H88.0849C88.0476 199.465 87.9262 199.251 87.7209 199.092C87.5249 198.933 87.2636 198.854 86.9369 198.854C86.6569 198.854 86.4422 198.91 86.2929 199.022C86.1436 199.125 86.0689 199.269 86.0689 199.456C86.0689 199.68 86.1856 199.848 86.4189 199.96C86.6616 200.072 87.0349 200.184 87.5389 200.296C88.1176 200.445 88.5889 200.595 88.9529 200.744C89.3169 200.884 89.6342 201.117 89.9049 201.444C90.1849 201.761 90.3296 202.191 90.3389 202.732C90.3389 203.189 90.2082 203.6 89.9469 203.964C89.6949 204.319 89.3262 204.599 88.8409 204.804C88.3649 205.009 87.8096 205.112 87.1749 205.112ZM99.1675 200.968C99.1675 201.192 99.1535 201.425 99.1255 201.668H93.7075C93.7449 202.153 93.8989 202.527 94.1695 202.788C94.4495 203.04 94.7902 203.166 95.1915 203.166C95.7889 203.166 96.2042 202.914 96.4375 202.41H98.9855C98.8549 202.923 98.6169 203.385 98.2715 203.796C97.9355 204.207 97.5109 204.529 96.9975 204.762C96.4842 204.995 95.9102 205.112 95.2755 205.112C94.5102 205.112 93.8289 204.949 93.2315 204.622C92.6342 204.295 92.1675 203.829 91.8315 203.222C91.4955 202.615 91.3275 201.906 91.3275 201.094C91.3275 200.282 91.4909 199.573 91.8175 198.966C92.1535 198.359 92.6202 197.893 93.2175 197.566C93.8149 197.239 94.5009 197.076 95.2755 197.076C96.0315 197.076 96.7035 197.235 97.2915 197.552C97.8795 197.869 98.3369 198.322 98.6635 198.91C98.9995 199.498 99.1675 200.184 99.1675 200.968ZM96.7175 200.338C96.7175 199.927 96.5775 199.601 96.2975 199.358C96.0175 199.115 95.6675 198.994 95.2475 198.994C94.8462 198.994 94.5055 199.111 94.2255 199.344C93.9549 199.577 93.7869 199.909 93.7215 200.338H96.7175ZM103.609 205.112C102.927 205.112 102.321 204.995 101.789 204.762C101.257 204.529 100.837 204.211 100.529 203.81C100.221 203.399 100.048 202.942 100.011 202.438H102.377C102.405 202.709 102.531 202.928 102.755 203.096C102.979 203.264 103.254 203.348 103.581 203.348C103.879 203.348 104.108 203.292 104.267 203.18C104.435 203.059 104.519 202.905 104.519 202.718C104.519 202.494 104.402 202.331 104.169 202.228C103.935 202.116 103.557 201.995 103.035 201.864C102.475 201.733 102.008 201.598 101.635 201.458C101.261 201.309 100.939 201.08 100.669 200.772C100.398 200.455 100.263 200.03 100.263 199.498C100.263 199.05 100.384 198.644 100.627 198.28C100.879 197.907 101.243 197.613 101.719 197.398C102.204 197.183 102.778 197.076 103.441 197.076C104.421 197.076 105.191 197.319 105.751 197.804C106.32 198.289 106.647 198.933 106.731 199.736H104.519C104.481 199.465 104.36 199.251 104.155 199.092C103.959 198.933 103.697 198.854 103.371 198.854C103.091 198.854 102.876 198.91 102.727 199.022C102.577 199.125 102.503 199.269 102.503 199.456C102.503 199.68 102.619 199.848 102.853 199.96C103.095 200.072 103.469 200.184 103.973 200.296C104.551 200.445 105.023 200.595 105.387 200.744C105.751 200.884 106.068 201.117 106.339 201.444C106.619 201.761 106.763 202.191 106.773 202.732C106.773 203.189 106.642 203.6 106.381 203.964C106.129 204.319 105.76 204.599 105.275 204.804C104.799 205.009 104.243 205.112 103.609 205.112ZM111.415 205.112C110.734 205.112 110.127 204.995 109.595 204.762C109.063 204.529 108.643 204.211 108.335 203.81C108.027 203.399 107.854 202.942 107.817 202.438H110.183C110.211 202.709 110.337 202.928 110.561 203.096C110.785 203.264 111.06 203.348 111.387 203.348C111.686 203.348 111.914 203.292 112.073 203.18C112.241 203.059 112.325 202.905 112.325 202.718C112.325 202.494 112.208 202.331 111.975 202.228C111.742 202.116 111.364 201.995 110.841 201.864C110.281 201.733 109.814 201.598 109.441 201.458C109.068 201.309 108.746 201.08 108.475 200.772C108.204 200.455 108.069 200.03 108.069 199.498C108.069 199.05 108.19 198.644 108.433 198.28C108.685 197.907 109.049 197.613 109.525 197.398C110.01 197.183 110.584 197.076 111.247 197.076C112.227 197.076 112.997 197.319 113.557 197.804C114.126 198.289 114.453 198.933 114.537 199.736H112.325C112.288 199.465 112.166 199.251 111.961 199.092C111.765 198.933 111.504 198.854 111.177 198.854C110.897 198.854 110.682 198.91 110.533 199.022C110.384 199.125 110.309 199.269 110.309 199.456C110.309 199.68 110.426 199.848 110.659 199.96C110.902 200.072 111.275 200.184 111.779 200.296C112.358 200.445 112.829 200.595 113.193 200.744C113.557 200.884 113.874 201.117 114.145 201.444C114.425 201.761 114.57 202.191 114.579 202.732C114.579 203.189 114.448 203.6 114.187 203.964C113.935 204.319 113.566 204.599 113.081 204.804C112.605 205.009 112.05 205.112 111.415 205.112ZM126.012 197.104C126.982 197.104 127.752 197.398 128.322 197.986C128.9 198.574 129.19 199.391 129.19 200.436V205H126.81V200.758C126.81 200.254 126.674 199.867 126.404 199.596C126.142 199.316 125.778 199.176 125.312 199.176C124.845 199.176 124.476 199.316 124.206 199.596C123.944 199.867 123.814 200.254 123.814 200.758V205H121.434V200.758C121.434 200.254 121.298 199.867 121.028 199.596C120.766 199.316 120.402 199.176 119.936 199.176C119.469 199.176 119.1 199.316 118.83 199.596C118.568 199.867 118.438 200.254 118.438 200.758V205H116.044V197.188H118.438V198.168C118.68 197.841 118.998 197.585 119.39 197.398C119.782 197.202 120.225 197.104 120.72 197.104C121.308 197.104 121.83 197.23 122.288 197.482C122.754 197.734 123.118 198.093 123.38 198.56C123.65 198.131 124.019 197.781 124.486 197.51C124.952 197.239 125.461 197.104 126.012 197.104ZM138.228 200.968C138.228 201.192 138.214 201.425 138.186 201.668H132.768C132.805 202.153 132.959 202.527 133.23 202.788C133.51 203.04 133.851 203.166 134.252 203.166C134.849 203.166 135.265 202.914 135.498 202.41H138.046C137.915 202.923 137.677 203.385 137.332 203.796C136.996 204.207 136.571 204.529 136.058 204.762C135.545 204.995 134.971 205.112 134.336 205.112C133.571 205.112 132.889 204.949 132.292 204.622C131.695 204.295 131.228 203.829 130.892 203.222C130.556 202.615 130.388 201.906 130.388 201.094C130.388 200.282 130.551 199.573 130.878 198.966C131.214 198.359 131.681 197.893 132.278 197.566C132.875 197.239 133.561 197.076 134.336 197.076C135.092 197.076 135.764 197.235 136.352 197.552C136.94 197.869 137.397 198.322 137.724 198.91C138.06 199.498 138.228 200.184 138.228 200.968ZM135.778 200.338C135.778 199.927 135.638 199.601 135.358 199.358C135.078 199.115 134.728 198.994 134.308 198.994C133.907 198.994 133.566 199.111 133.286 199.344C133.015 199.577 132.847 199.909 132.782 200.338H135.778ZM144.251 197.104C145.166 197.104 145.894 197.403 146.435 198C146.986 198.588 147.261 199.4 147.261 200.436V205H144.881V200.758C144.881 200.235 144.746 199.829 144.475 199.54C144.204 199.251 143.84 199.106 143.383 199.106C142.926 199.106 142.562 199.251 142.291 199.54C142.02 199.829 141.885 200.235 141.885 200.758V205H139.491V197.188H141.885V198.224C142.128 197.879 142.454 197.608 142.865 197.412C143.276 197.207 143.738 197.104 144.251 197.104ZM153.279 202.97V205H152.061C151.193 205 150.516 204.79 150.031 204.37C149.545 203.941 149.303 203.245 149.303 202.284V199.176H148.351V197.188H149.303V195.284H151.697V197.188H153.265V199.176H151.697V202.312C151.697 202.545 151.753 202.713 151.865 202.816C151.977 202.919 152.163 202.97 152.425 202.97H153.279Z" fill="#808080"/>
<g filter="url(#filter2_d_2_17)">
<rect x="380" y="9.75781" width="100" height="29.615" rx="14.8075" fill="white"/>
</g>
<path d="M393.462 25.072C393.462 24.1013 393.672 23.238 394.092 22.482C394.512 21.7167 395.095 21.124 395.842 20.704C396.598 20.2747 397.452 20.06 398.404 20.06C399.571 20.06 400.569 20.368 401.4 20.984C402.231 21.6 402.786 22.44 403.066 23.504H400.434C400.238 23.0933 399.958 22.7807 399.594 22.566C399.239 22.3513 398.833 22.244 398.376 22.244C397.639 22.244 397.041 22.5007 396.584 23.014C396.127 23.5273 395.898 24.2133 395.898 25.072C395.898 25.9307 396.127 26.6167 396.584 27.13C397.041 27.6433 397.639 27.9 398.376 27.9C398.833 27.9 399.239 27.7927 399.594 27.578C399.958 27.3633 400.238 27.0507 400.434 26.64H403.066C402.786 27.704 402.231 28.544 401.4 29.16C400.569 29.7667 399.571 30.07 398.404 30.07C397.452 30.07 396.598 29.86 395.842 29.44C395.095 29.0107 394.512 28.418 394.092 27.662C393.672 26.906 393.462 26.0427 393.462 25.072ZM406.926 23.49C407.206 23.0607 407.556 22.7247 407.976 22.482C408.396 22.23 408.863 22.104 409.376 22.104V24.638H408.718C408.121 24.638 407.673 24.7687 407.374 25.03C407.075 25.282 406.926 25.73 406.926 26.374V30H404.532V22.188H406.926V23.49ZM417.884 25.968C417.884 26.192 417.87 26.4253 417.842 26.668H412.424C412.462 27.1533 412.616 27.5267 412.886 27.788C413.166 28.04 413.507 28.166 413.908 28.166C414.506 28.166 414.921 27.914 415.154 27.41H417.702C417.572 27.9233 417.334 28.3853 416.988 28.796C416.652 29.2067 416.228 29.5287 415.714 29.762C415.201 29.9953 414.627 30.112 413.992 30.112C413.227 30.112 412.546 29.9487 411.948 29.622C411.351 29.2953 410.884 28.8287 410.548 28.222C410.212 27.6153 410.044 26.906 410.044 26.094C410.044 25.282 410.208 24.5727 410.534 23.966C410.87 23.3593 411.337 22.8927 411.934 22.566C412.532 22.2393 413.218 22.076 413.992 22.076C414.748 22.076 415.42 22.2347 416.008 22.552C416.596 22.8693 417.054 23.322 417.38 23.91C417.716 24.498 417.884 25.184 417.884 25.968ZM415.434 25.338C415.434 24.9273 415.294 24.6007 415.014 24.358C414.734 24.1153 414.384 23.994 413.964 23.994C413.563 23.994 413.222 24.1107 412.942 24.344C412.672 24.5773 412.504 24.9087 412.438 25.338H415.434ZM418.671 26.08C418.671 25.2773 418.821 24.5727 419.119 23.966C419.427 23.3593 419.843 22.8927 420.365 22.566C420.888 22.2393 421.471 22.076 422.115 22.076C422.666 22.076 423.147 22.188 423.557 22.412C423.977 22.636 424.299 22.93 424.523 23.294V22.188H426.917V30H424.523V28.894C424.29 29.258 423.963 29.552 423.543 29.776C423.133 30 422.652 30.112 422.101 30.112C421.467 30.112 420.888 29.9487 420.365 29.622C419.843 29.286 419.427 28.8147 419.119 28.208C418.821 27.592 418.671 26.8827 418.671 26.08ZM424.523 26.094C424.523 25.4967 424.355 25.0253 424.019 24.68C423.693 24.3347 423.291 24.162 422.815 24.162C422.339 24.162 421.933 24.3347 421.597 24.68C421.271 25.016 421.107 25.4827 421.107 26.08C421.107 26.6773 421.271 27.1533 421.597 27.508C421.933 27.8533 422.339 28.026 422.815 28.026C423.291 28.026 423.693 27.8533 424.019 27.508C424.355 27.1627 424.523 26.6913 424.523 26.094ZM433.003 27.97V30H431.785C430.917 30 430.241 29.79 429.755 29.37C429.27 28.9407 429.027 28.2453 429.027 27.284V24.176H428.075V22.188H429.027V20.284H431.421V22.188H432.989V24.176H431.421V27.312C431.421 27.5453 431.477 27.7133 431.589 27.816C431.701 27.9187 431.888 27.97 432.149 27.97H433.003ZM441.701 25.968C441.701 26.192 441.687 26.4253 441.659 26.668H436.241C436.278 27.1533 436.432 27.5267 436.703 27.788C436.983 28.04 437.323 28.166 437.725 28.166C438.322 28.166 438.737 27.914 438.971 27.41H441.519C441.388 27.9233 441.15 28.3853 440.805 28.796C440.469 29.2067 440.044 29.5287 439.531 29.762C439.017 29.9953 438.443 30.112 437.809 30.112C437.043 30.112 436.362 29.9487 435.765 29.622C435.167 29.2953 434.701 28.8287 434.365 28.222C434.029 27.6153 433.861 26.906 433.861 26.094C433.861 25.282 434.024 24.5727 434.351 23.966C434.687 23.3593 435.153 22.8927 435.751 22.566C436.348 22.2393 437.034 22.076 437.809 22.076C438.565 22.076 439.237 22.2347 439.825 22.552C440.413 22.8693 440.87 23.322 441.197 23.91C441.533 24.498 441.701 25.184 441.701 25.968ZM439.251 25.338C439.251 24.9273 439.111 24.6007 438.831 24.358C438.551 24.1153 438.201 23.994 437.781 23.994C437.379 23.994 437.039 24.1107 436.759 24.344C436.488 24.5773 436.32 24.9087 436.255 25.338H439.251ZM445.524 25.072C445.524 24.1013 445.735 23.238 446.155 22.482C446.575 21.7167 447.158 21.124 447.905 20.704C448.661 20.2747 449.515 20.06 450.467 20.06C451.633 20.06 452.632 20.368 453.463 20.984C454.293 21.6 454.849 22.44 455.129 23.504H452.497C452.301 23.0933 452.021 22.7807 451.657 22.566C451.302 22.3513 450.896 22.244 450.439 22.244C449.701 22.244 449.104 22.5007 448.647 23.014C448.189 23.5273 447.961 24.2133 447.961 25.072C447.961 25.9307 448.189 26.6167 448.647 27.13C449.104 27.6433 449.701 27.9 450.439 27.9C450.896 27.9 451.302 27.7927 451.657 27.578C452.021 27.3633 452.301 27.0507 452.497 26.64H455.129C454.849 27.704 454.293 28.544 453.463 29.16C452.632 29.7667 451.633 30.07 450.467 30.07C449.515 30.07 448.661 29.86 447.905 29.44C447.158 29.0107 446.575 28.418 446.155 27.662C445.735 26.906 445.524 26.0427 445.524 25.072ZM465.821 20.172L462.335 30H459.339L455.853 20.172H458.401L460.837 27.592L463.287 20.172H465.821Z" fill="#808080"/>
<g filter="url(#filter3_d_2_17)">
<rect x="52" y="100" width="159" height="29" rx="14.5" fill="white"/>
</g>
<path d="M73.028 109.172V115.864C73.028 116.9 72.734 117.698 72.146 118.258C71.5673 118.818 70.7833 119.098 69.794 119.098C68.758 119.098 67.9273 118.804 67.302 118.216C66.6767 117.628 66.364 116.793 66.364 115.71H68.744C68.744 116.121 68.828 116.433 68.996 116.648C69.164 116.853 69.4067 116.956 69.724 116.956C70.0133 116.956 70.2373 116.863 70.396 116.676C70.5547 116.489 70.634 116.219 70.634 115.864V109.172H73.028ZM78.5178 119.112C77.7524 119.112 77.0618 118.949 76.4458 118.622C75.8391 118.295 75.3584 117.829 75.0038 117.222C74.6584 116.615 74.4858 115.906 74.4858 115.094C74.4858 114.291 74.6631 113.587 75.0177 112.98C75.3724 112.364 75.8578 111.893 76.4738 111.566C77.0898 111.239 77.7804 111.076 78.5458 111.076C79.3111 111.076 80.0018 111.239 80.6178 111.566C81.2338 111.893 81.7191 112.364 82.0738 112.98C82.4284 113.587 82.6058 114.291 82.6058 115.094C82.6058 115.897 82.4238 116.606 82.0598 117.222C81.7051 117.829 81.2151 118.295 80.5898 118.622C79.9738 118.949 79.2831 119.112 78.5178 119.112ZM78.5178 117.04C78.9751 117.04 79.3624 116.872 79.6798 116.536C80.0064 116.2 80.1698 115.719 80.1698 115.094C80.1698 114.469 80.0111 113.988 79.6938 113.652C79.3858 113.316 79.0031 113.148 78.5458 113.148C78.0791 113.148 77.6918 113.316 77.3838 113.652C77.0758 113.979 76.9218 114.459 76.9218 115.094C76.9218 115.719 77.0711 116.2 77.3698 116.536C77.6778 116.872 78.0604 117.04 78.5178 117.04ZM86.2698 112.294C86.4938 111.93 86.8158 111.636 87.2358 111.412C87.6558 111.188 88.1365 111.076 88.6778 111.076C89.3218 111.076 89.9051 111.239 90.4278 111.566C90.9505 111.893 91.3611 112.359 91.6598 112.966C91.9678 113.573 92.1218 114.277 92.1218 115.08C92.1218 115.883 91.9678 116.592 91.6598 117.208C91.3611 117.815 90.9505 118.286 90.4278 118.622C89.9051 118.949 89.3218 119.112 88.6778 119.112C88.1271 119.112 87.6465 119.005 87.2358 118.79C86.8251 118.566 86.5031 118.272 86.2698 117.908V119H83.8758V108.64H86.2698V112.294ZM89.6858 115.08C89.6858 114.483 89.5178 114.016 89.1818 113.68C88.8551 113.335 88.4491 113.162 87.9638 113.162C87.4878 113.162 87.0818 113.335 86.7458 113.68C86.4191 114.025 86.2558 114.497 86.2558 115.094C86.2558 115.691 86.4191 116.163 86.7458 116.508C87.0818 116.853 87.4878 117.026 87.9638 117.026C88.4398 117.026 88.8458 116.853 89.1818 116.508C89.5178 116.153 89.6858 115.677 89.6858 115.08ZM100.993 119.098C100.069 119.098 99.2192 118.883 98.4446 118.454C97.6792 118.025 97.0679 117.427 96.6106 116.662C96.1626 115.887 95.9386 115.019 95.9386 114.058C95.9386 113.097 96.1626 112.233 96.6106 111.468C97.0679 110.703 97.6792 110.105 98.4446 109.676C99.2192 109.247 100.069 109.032 100.993 109.032C101.917 109.032 102.761 109.247 103.527 109.676C104.301 110.105 104.908 110.703 105.347 111.468C105.795 112.233 106.019 113.097 106.019 114.058C106.019 115.019 105.795 115.887 105.347 116.662C104.899 117.427 104.292 118.025 103.527 118.454C102.761 118.883 101.917 119.098 100.993 119.098ZM100.993 116.914C101.777 116.914 102.402 116.653 102.869 116.13C103.345 115.607 103.583 114.917 103.583 114.058C103.583 113.19 103.345 112.499 102.869 111.986C102.402 111.463 101.777 111.202 100.993 111.202C100.199 111.202 99.5646 111.459 99.0886 111.972C98.6219 112.485 98.3886 113.181 98.3886 114.058C98.3886 114.926 98.6219 115.621 99.0886 116.144C99.5646 116.657 100.199 116.914 100.993 116.914ZM109.744 112.294C109.978 111.93 110.3 111.636 110.71 111.412C111.121 111.188 111.602 111.076 112.152 111.076C112.796 111.076 113.38 111.239 113.902 111.566C114.425 111.893 114.836 112.359 115.134 112.966C115.442 113.573 115.596 114.277 115.596 115.08C115.596 115.883 115.442 116.592 115.134 117.208C114.836 117.815 114.425 118.286 113.902 118.622C113.38 118.949 112.796 119.112 112.152 119.112C111.611 119.112 111.13 119 110.71 118.776C110.3 118.552 109.978 118.263 109.744 117.908V122.724H107.35V111.188H109.744V112.294ZM113.16 115.08C113.16 114.483 112.992 114.016 112.656 113.68C112.33 113.335 111.924 113.162 111.438 113.162C110.962 113.162 110.556 113.335 110.22 113.68C109.894 114.025 109.73 114.497 109.73 115.094C109.73 115.691 109.894 116.163 110.22 116.508C110.556 116.853 110.962 117.026 111.438 117.026C111.914 117.026 112.32 116.853 112.656 116.508C112.992 116.153 113.16 115.677 113.16 115.08ZM119.246 112.294C119.48 111.93 119.802 111.636 120.212 111.412C120.623 111.188 121.104 111.076 121.654 111.076C122.298 111.076 122.882 111.239 123.404 111.566C123.927 111.893 124.338 112.359 124.636 112.966C124.944 113.573 125.098 114.277 125.098 115.08C125.098 115.883 124.944 116.592 124.636 117.208C124.338 117.815 123.927 118.286 123.404 118.622C122.882 118.949 122.298 119.112 121.654 119.112C121.113 119.112 120.632 119 120.212 118.776C119.802 118.552 119.48 118.263 119.246 117.908V122.724H116.852V111.188H119.246V112.294ZM122.662 115.08C122.662 114.483 122.494 114.016 122.158 113.68C121.832 113.335 121.426 113.162 120.94 113.162C120.464 113.162 120.058 113.335 119.722 113.68C119.396 114.025 119.232 114.497 119.232 115.094C119.232 115.691 119.396 116.163 119.722 116.508C120.058 116.853 120.464 117.026 120.94 117.026C121.416 117.026 121.822 116.853 122.158 116.508C122.494 116.153 122.662 115.677 122.662 115.08ZM129.91 119.112C129.145 119.112 128.454 118.949 127.838 118.622C127.232 118.295 126.751 117.829 126.396 117.222C126.051 116.615 125.878 115.906 125.878 115.094C125.878 114.291 126.056 113.587 126.41 112.98C126.765 112.364 127.25 111.893 127.866 111.566C128.482 111.239 129.173 111.076 129.938 111.076C130.704 111.076 131.394 111.239 132.01 111.566C132.626 111.893 133.112 112.364 133.466 112.98C133.821 113.587 133.998 114.291 133.998 115.094C133.998 115.897 133.816 116.606 133.452 117.222C133.098 117.829 132.608 118.295 131.982 118.622C131.366 118.949 130.676 119.112 129.91 119.112ZM129.91 117.04C130.368 117.04 130.755 116.872 131.072 116.536C131.399 116.2 131.562 115.719 131.562 115.094C131.562 114.469 131.404 113.988 131.086 113.652C130.778 113.316 130.396 113.148 129.938 113.148C129.472 113.148 129.084 113.316 128.776 113.652C128.468 113.979 128.314 114.459 128.314 115.094C128.314 115.719 128.464 116.2 128.762 116.536C129.07 116.872 129.453 117.04 129.91 117.04ZM137.662 112.49C137.942 112.061 138.292 111.725 138.712 111.482C139.132 111.23 139.599 111.104 140.112 111.104V113.638H139.454C138.857 113.638 138.409 113.769 138.11 114.03C137.812 114.282 137.662 114.73 137.662 115.374V119H135.268V111.188H137.662V112.49ZM145.611 116.97V119H144.393C143.525 119 142.848 118.79 142.363 118.37C141.877 117.941 141.635 117.245 141.635 116.284V113.176H140.683V111.188H141.635V109.284H144.029V111.188H145.597V113.176H144.029V116.312C144.029 116.545 144.085 116.713 144.197 116.816C144.309 116.919 144.495 116.97 144.757 116.97H145.611ZM154.658 111.188V119H152.264V117.936C152.022 118.281 151.69 118.561 151.27 118.776C150.86 118.981 150.402 119.084 149.898 119.084C149.301 119.084 148.774 118.953 148.316 118.692C147.859 118.421 147.504 118.034 147.252 117.53C147 117.026 146.874 116.433 146.874 115.752V111.188H149.254V115.43C149.254 115.953 149.39 116.359 149.66 116.648C149.931 116.937 150.295 117.082 150.752 117.082C151.219 117.082 151.588 116.937 151.858 116.648C152.129 116.359 152.264 115.953 152.264 115.43V111.188H154.658ZM161.138 111.104C162.052 111.104 162.78 111.403 163.322 112C163.872 112.588 164.148 113.4 164.148 114.436V119H161.768V114.758C161.768 114.235 161.632 113.829 161.362 113.54C161.091 113.251 160.727 113.106 160.27 113.106C159.812 113.106 159.448 113.251 159.178 113.54C158.907 113.829 158.772 114.235 158.772 114.758V119H156.378V111.188H158.772V112.224C159.014 111.879 159.341 111.608 159.752 111.412C160.162 111.207 160.624 111.104 161.138 111.104ZM167.015 110.376C166.595 110.376 166.25 110.255 165.979 110.012C165.718 109.76 165.587 109.452 165.587 109.088C165.587 108.715 165.718 108.407 165.979 108.164C166.25 107.912 166.595 107.786 167.015 107.786C167.426 107.786 167.762 107.912 168.023 108.164C168.294 108.407 168.429 108.715 168.429 109.088C168.429 109.452 168.294 109.76 168.023 110.012C167.762 110.255 167.426 110.376 167.015 110.376ZM168.205 111.188V119H165.811V111.188H168.205ZM174.294 116.97V119H173.076C172.208 119 171.532 118.79 171.046 118.37C170.561 117.941 170.318 117.245 170.318 116.284V113.176H169.366V111.188H170.318V109.284H172.712V111.188H174.28V113.176H172.712V116.312C172.712 116.545 172.768 116.713 172.88 116.816C172.992 116.919 173.179 116.97 173.44 116.97H174.294ZM176.832 110.376C176.412 110.376 176.066 110.255 175.796 110.012C175.534 109.76 175.404 109.452 175.404 109.088C175.404 108.715 175.534 108.407 175.796 108.164C176.066 107.912 176.412 107.786 176.832 107.786C177.242 107.786 177.578 107.912 177.84 108.164C178.11 108.407 178.246 108.715 178.246 109.088C178.246 109.452 178.11 109.76 177.84 110.012C177.578 110.255 177.242 110.376 176.832 110.376ZM178.022 111.188V119H175.628V111.188H178.022ZM187.121 114.968C187.121 115.192 187.107 115.425 187.079 115.668H181.661C181.698 116.153 181.852 116.527 182.123 116.788C182.403 117.04 182.743 117.166 183.145 117.166C183.742 117.166 184.157 116.914 184.391 116.41H186.939C186.808 116.923 186.57 117.385 186.225 117.796C185.889 118.207 185.464 118.529 184.951 118.762C184.437 118.995 183.863 119.112 183.229 119.112C182.463 119.112 181.782 118.949 181.185 118.622C180.587 118.295 180.121 117.829 179.785 117.222C179.449 116.615 179.281 115.906 179.281 115.094C179.281 114.282 179.444 113.573 179.771 112.966C180.107 112.359 180.573 111.893 181.171 111.566C181.768 111.239 182.454 111.076 183.229 111.076C183.985 111.076 184.657 111.235 185.245 111.552C185.833 111.869 186.29 112.322 186.617 112.91C186.953 113.498 187.121 114.184 187.121 114.968ZM184.671 114.338C184.671 113.927 184.531 113.601 184.251 113.358C183.971 113.115 183.621 112.994 183.201 112.994C182.799 112.994 182.459 113.111 182.179 113.344C181.908 113.577 181.74 113.909 181.675 114.338H184.671ZM191.562 119.112C190.88 119.112 190.274 118.995 189.742 118.762C189.21 118.529 188.79 118.211 188.482 117.81C188.174 117.399 188.001 116.942 187.964 116.438H190.33C190.358 116.709 190.484 116.928 190.708 117.096C190.932 117.264 191.207 117.348 191.534 117.348C191.832 117.348 192.061 117.292 192.22 117.18C192.388 117.059 192.472 116.905 192.472 116.718C192.472 116.494 192.355 116.331 192.122 116.228C191.888 116.116 191.51 115.995 190.988 115.864C190.428 115.733 189.961 115.598 189.588 115.458C189.214 115.309 188.892 115.08 188.622 114.772C188.351 114.455 188.216 114.03 188.216 113.498C188.216 113.05 188.337 112.644 188.58 112.28C188.832 111.907 189.196 111.613 189.672 111.398C190.157 111.183 190.731 111.076 191.394 111.076C192.374 111.076 193.144 111.319 193.704 111.804C194.273 112.289 194.6 112.933 194.684 113.736H192.472C192.434 113.465 192.313 113.251 192.108 113.092C191.912 112.933 191.65 112.854 191.324 112.854C191.044 112.854 190.829 112.91 190.68 113.022C190.53 113.125 190.456 113.269 190.456 113.456C190.456 113.68 190.572 113.848 190.806 113.96C191.048 114.072 191.422 114.184 191.926 114.296C192.504 114.445 192.976 114.595 193.34 114.744C193.704 114.884 194.021 115.117 194.292 115.444C194.572 115.761 194.716 116.191 194.726 116.732C194.726 117.189 194.595 117.6 194.334 117.964C194.082 118.319 193.713 118.599 193.228 118.804C192.752 119.009 192.196 119.112 191.562 119.112Z" fill="#808080"/>
<path d="M176.699 333.363H114V251H164.622L176.699 263.47V333.363Z" fill="white"/>
<path d="M164.621 251L176.699 263.47H164.621V251Z" fill="#DFEAEA"/>
<path d="M150.556 264.323C150.556 267.198 148.224 269.522 145.356 269.522C142.481 269.522 140.156 267.191 140.156 264.323C140.156 261.448 142.481 259.123 145.356 259.123C148.224 259.116 150.556 261.448 150.556 264.323Z" fill="#213CC1"/>
<path d="M145.349 269.131C140.631 269.131 136.807 272.921 136.807 277.598H153.885C153.891 272.921 150.067 269.131 145.349 269.131Z" fill="#213CC1"/>
<path d="M170.434 284.619H120.273V287.632H170.434V284.619Z" fill="#DFEAEA"/>
<path d="M170.434 291.662H120.273V294.675H170.434V291.662Z" fill="#DFEAEA"/>
<path d="M170.434 300.729H120.273V303.741H170.434V300.729Z" fill="#DFEAEA"/>
<path d="M170.434 307.771H120.273V310.784H170.434V307.771Z" fill="#DFEAEA"/>
<path d="M170.434 314.822H120.273V317.835H170.434V314.822Z" fill="#DFEAEA"/>
<path d="M170.434 321.871H120.273V324.884H170.434V321.871Z" fill="#DFEAEA"/>
<g clip-path="url(#clip0_2_17)">
<path d="M344.038 223.039H411.854V219.012H344.038V223.039Z" fill="#E2D2CA"/>
<path d="M402.763 233.52H396.822V416.642H402.763V233.52Z" fill="#706865"/>
<path d="M307.509 223.621H354.648V217.871H307.509V223.621Z" fill="#CCBDB7"/>
<path d="M322.154 223.039H340.006V168.809H322.154V223.039Z" fill="#737DAD"/>
<path d="M175.002 233.518L436.18 233.518V223.105L175.002 223.105V233.518Z" fill="#B59074"/>
<path d="M486.305 160.084C486.305 160.084 489.161 200.154 481.333 204.948C476.43 207.951 456.879 218.085 457.46 219.986C458.041 221.887 468.499 236.893 468.499 236.893C468.499 236.893 506.052 212.156 507.263 204.362C508.445 196.745 505.414 145.694 500.252 143.341C496.387 141.578 494.345 143.036 489.474 146.654C482.636 151.734 486.305 160.084 486.305 160.084Z" fill="#6677CE"/>
<path d="M417.866 171.526L414.557 170.3C414.557 170.3 418.683 160.61 420.486 160.846C422.562 161.116 425.153 161.801 425.153 161.801L417.866 171.526Z" fill="#EAD8CF"/>
<path d="M417.109 173.197C417.532 172.881 424.146 160.193 424.146 160.193L438.274 162.115L430.639 177.143L417.109 173.197Z" fill="#DA9B5B"/>
<path d="M440.104 391.638C440.104 391.638 441.271 399.746 441.418 400.963C441.564 402.18 454.407 400.247 454.407 400.247L455.448 390.594C455.448 390.594 441.708 390.496 440.104 391.638Z" fill="#424773"/>
<path d="M441.279 399.933C441.279 399.933 437.21 404.817 433.274 406.949C429.337 409.077 423.151 409.923 420.825 412.126C419.146 413.716 414.706 420.568 431.054 420.43C447.401 420.292 455.284 421.396 457.035 418.77C458.786 416.144 454.501 399.387 454.501 399.387C454.501 399.387 450.628 400.779 441.279 399.933Z" fill="#292C47"/>
<path d="M357.809 391.716C357.809 391.716 358.976 399.824 359.123 401.041C359.269 402.258 372.112 400.325 372.112 400.325L373.153 390.672C373.153 390.672 359.416 390.574 357.809 391.716Z" fill="#424773"/>
<path d="M358.988 400.011C358.988 400.011 354.919 404.895 350.983 407.027C347.046 409.155 332.561 410.904 330.235 413.11C328.556 414.701 325.761 421.106 348.763 420.508C365.105 420.082 372.993 421.474 374.744 418.848C376.495 416.222 372.21 399.465 372.21 399.465C372.21 399.465 368.561 400.949 358.988 400.011Z" fill="#292C47"/>
<path d="M481.532 251.594C481.532 251.594 434.835 259.498 424.287 261.155C413.74 262.811 356.552 277.046 349.401 281.384C343.707 284.835 352.386 367.753 354.413 399.387H376.938L378.571 304.492C405.602 305.168 424.888 298.167 444.572 301.158C464.256 304.15 480.667 308.398 493.173 291.618C493.176 291.615 493.639 255.258 481.532 251.594Z" fill="#292C47"/>
<path d="M435.505 399.463L457.455 398.105L459.594 304.49C471.232 304.78 475.22 304.044 484.635 302.899L502.357 261.693C486.826 264.8 437.061 277.355 430.427 281.382C424.733 284.836 433.475 367.826 435.505 399.463Z" fill="#292C47"/>
<path d="M460.034 76.5097C460.034 76.5097 442.915 71.7782 436.385 85.0696C429.854 98.361 432.813 123.56 441.443 125.93C450.07 128.3 462.478 125.571 466.058 117.299C469.641 109.026 472.497 97.2709 471.64 89.6573C470.783 82.0466 464.58 78.3304 460.034 76.5097Z" fill="#EEA886"/>
<path d="M445.915 123.279C445.915 123.279 446.102 133.386 444.989 135.543C443.874 137.698 468.825 137.157 468.825 137.157C468.825 137.157 464.894 125.019 467.123 114.676C469.334 104.439 445.915 123.279 445.915 123.279Z" fill="#EEA886"/>
<path d="M468.469 110.851C468.469 110.851 467.135 113.563 460.676 113.126C454.217 112.689 445.7 104.894 442.956 104.198C440.213 103.502 440.052 101.94 440.052 101.94L438.6 104.52L435.79 104.948C435.79 104.948 437.7 97.1392 433.539 94.3866C429.381 91.6369 435.414 69.4864 456.472 74.8277C456.472 74.8277 472.544 77.7731 472.759 86.75C472.981 95.7241 471.589 106.093 468.469 110.851Z" fill="#3A3F47"/>
<path d="M443.678 135.285C443.678 135.285 443.747 131.166 445.613 130.772C447.479 130.378 465.228 127.936 467.517 128.836L468.5 134.273C468.5 134.273 464.086 136.991 443.678 135.285Z" fill="#E2D2CA"/>
<path d="M438.541 100.099C439.021 96.7246 442.854 92.8474 445.051 98.1024C447.248 103.36 443.567 111.014 441.103 110.603C438.641 110.194 437.891 104.678 438.541 100.099Z" fill="#EEA886"/>
<path d="M369.342 183.934C369.351 183.931 369.36 183.928 369.374 183.931C369.245 183.986 369.227 183.991 369.342 183.934Z" fill="#323657"/>
<path d="M465.029 78.9212C465.029 78.9212 485.9 77.9375 468.673 110.529L465.029 78.9212Z" fill="#3A3F47"/>
<path d="M511.534 410.567L509.981 414.933L444.377 394.603L447.52 385.756L511.534 410.567Z" fill="#918783"/>
<path d="M442.128 391.492H449.584V320.151H442.128V391.492Z" fill="#918783"/>
<path d="M423.864 320.562H467.844V316.357H423.864V320.562Z" fill="#5E5854"/>
<path d="M379.6 410.567L381.152 414.934L446.754 394.604L443.872 385.201L379.6 410.567Z" fill="#918783"/>
<path d="M425.82 414.468V419.55L446.755 394.604L443.873 385.201L425.82 414.468Z" fill="#918783"/>
<path d="M373.467 416.642C373.467 420.03 376.213 422.774 379.598 422.774C382.982 422.774 385.728 420.027 385.728 416.642C385.728 413.254 382.982 410.51 379.598 410.51C376.213 410.51 373.467 413.257 373.467 416.642Z" fill="#BFB2AC"/>
<path d="M425.299 416.642C425.299 420.03 428.045 422.774 431.43 422.774C434.814 422.774 437.56 420.027 437.56 416.642C437.56 413.254 434.814 410.51 431.43 410.51C428.045 410.51 425.299 413.257 425.299 416.642Z" fill="#BFB2AC"/>
<path d="M505.402 416.642C505.402 420.03 508.149 422.774 511.533 422.774C514.918 422.774 517.664 420.027 517.664 416.642C517.664 413.254 514.921 410.51 511.533 410.51C508.146 410.51 505.402 413.257 505.402 416.642Z" fill="#BFB2AC"/>
<path d="M401.328 316.357H489.799C494.138 316.357 497.658 312.836 497.658 308.496V308.295C497.658 303.954 494.138 300.434 489.799 300.434H401.328C396.989 300.434 393.469 303.954 393.469 308.295V308.496C393.472 312.839 396.989 316.357 401.328 316.357Z" fill="#254380"/>
<path d="M208.415 416.643H214.359L214.359 233.52H208.415L208.415 416.643Z" fill="#706865"/>
<path d="M261.851 194.932H400.308C404.639 194.932 408.147 191.42 408.147 187.091V94.0107C408.147 89.679 404.636 86.1699 400.308 86.1699H261.851C257.52 86.1699 254.012 89.6819 254.012 94.0107V187.091C254.012 191.423 257.52 194.932 261.851 194.932Z" fill="#737DAD"/>
<path d="M260.047 177.887L402.113 177.887V92.0463L260.047 92.0463V177.887Z" fill="#F5F7FF"/>
<path d="M299.17 223.245V221.309C299.17 221.309 301.89 209.271 321.134 209.271C340.375 209.271 339.986 223.245 339.986 223.245H299.17Z" fill="#5565BD"/>
<path d="M340.22 211.061C340.22 211.061 336.039 210.736 334.509 209.813C332.976 208.889 323.814 202.725 321.663 203.712C319.51 204.699 305.189 209.088 305.686 211.182C306.184 213.276 307.51 213.074 308.519 212.703C309.528 212.332 319.929 210.149 320.847 210.517C320.847 210.517 310.63 214.245 310.589 216.966C310.549 219.687 312.729 220.349 313.695 221.378C314.664 222.408 315.826 224.962 318.46 225.158C321.094 225.353 333.939 220.884 336.582 220.679C339.228 220.475 344.122 220.843 344.455 220.412C344.786 219.978 340.22 211.061 340.22 211.061Z" fill="#EEA886"/>
<path d="M416.323 140.991C429.651 138.646 443.681 135.284 443.681 135.284L468.503 134.271C468.503 134.271 491.284 139.288 500.256 143.34C501.107 143.723 501.11 163.667 503.445 168.899L496.006 184.595C496.006 184.595 491.71 215.688 490.818 229.517C490.41 235.865 491.974 290.869 491.974 290.869C491.974 290.869 489.746 291.971 472.803 293.837C455.862 295.704 413.533 293.161 413.266 291.162C412.998 289.16 421.464 216.637 421.838 212.881C422.413 207.117 420.173 180.482 420.173 180.482C416.981 184.771 408.843 204.137 400.363 213.353C395.374 218.774 370.669 222.097 366.011 222.252C355.874 222.588 337.381 224.608 336.844 223.624C336.412 223.031 335.233 207.206 336.392 206.821C337.407 206.481 371.745 204.505 380.541 199.837C383.759 198.128 393.381 177.146 393.381 177.146C393.381 177.146 408.97 144.295 416.323 140.991Z" fill="#6677CE"/>
<path d="M465.24 289.282H506.91C515.244 289.282 522.001 282.526 522.001 274.188V204.837C522.001 196.502 515.247 189.742 506.91 189.742H465.24C456.906 189.742 450.148 196.499 450.148 204.837V274.188C450.148 282.523 456.906 289.282 465.24 289.282Z" fill="#254380"/>
<path d="M462.881 312.394C473.472 312.394 482.064 308.836 488.419 301.818C502.783 285.958 500.201 258.075 500.086 256.893C499.867 254.695 497.906 253.09 495.715 253.309C493.518 253.528 491.913 255.483 492.132 257.681C492.163 258 494.452 283.271 482.481 296.468C477.639 301.806 471.229 304.401 462.884 304.401C460.675 304.401 458.887 306.19 458.887 308.399C458.884 310.605 460.672 312.394 462.881 312.394Z" fill="#254380"/>
<path d="M351.548 103.421H390.915C391.536 103.421 392.04 102.917 392.04 102.296V100.009C392.04 99.3881 391.536 98.8848 390.915 98.8848H351.548C350.927 98.8848 350.424 99.3881 350.424 100.009V102.296C350.424 102.917 350.927 103.421 351.548 103.421Z" fill="#DFE1E8"/>
<path d="M351.548 113.149H390.915C391.536 113.149 392.04 112.646 392.04 112.025V109.738C392.04 109.117 391.536 108.613 390.915 108.613H351.548C350.927 108.613 350.424 109.117 350.424 109.738V112.025C350.424 112.646 350.927 113.149 351.548 113.149Z" fill="#DFE1E8"/>
<path d="M354.206 171.051H388.262C390.35 171.051 392.041 169.36 392.041 167.272V123.549C392.041 121.461 390.35 119.77 388.262 119.77H354.206C352.119 119.77 350.428 121.461 350.428 123.549V167.272C350.425 169.357 352.119 171.051 354.206 171.051Z" fill="#DFE1E8"/>
<path d="M273.899 171.051H336.041C339.345 171.051 342.022 168.373 342.022 165.069V104.867C342.022 101.563 339.345 98.8848 336.041 98.8848H273.899C270.595 98.8848 267.918 101.563 267.918 104.867V165.066C267.918 168.371 270.595 171.051 273.899 171.051Z" fill="#DFE1E8"/>
<path d="M237.506 223.122C239.117 222.452 241.719 214.841 242.973 210.898C243.418 209.5 243.692 208.562 243.692 208.562H228.957C230.231 217.66 233.322 223.119 233.322 223.119H237.506V223.122Z" fill="#9E633A"/>
<path d="M238.689 204.032C238.689 203.503 241.052 201.285 242.237 199.838C243.419 198.391 241.783 195.645 241.783 195.645C236.506 197.828 237.418 204.032 237.418 204.032C237.418 204.032 238.689 204.561 238.689 204.032Z" fill="#97A43C"/>
<path d="M235.687 204.264H236.323C236.323 204.264 236.777 193.55 232.866 192.095C228.955 190.639 228.955 187.729 228.955 187.729C228.955 187.729 227.774 191.732 229.683 193.823C231.592 195.917 233.775 198.374 233.413 200.376C233.05 202.378 235.687 204.264 235.687 204.264Z" fill="#97A43C"/>
<path d="M242.973 210.898C243.418 209.5 243.692 208.562 243.692 208.562H228.957C230.231 217.66 233.322 223.119 233.322 223.119H234.283C234.104 214.603 239.712 211.804 242.973 210.898Z" fill="#82522F"/>
<path d="M243.689 204.031H228.845L228 208.564H244.293L243.689 204.031Z" fill="#C67B47"/>
<g clip-path="url(#clip1_2_17)">
<path d="M359.269 137.844C358.726 137.829 353.965 140.47 354.428 142.386C354.896 144.302 360.649 154.131 361.452 154.491C362.255 154.852 366.576 153.733 366.576 153.733C366.576 153.733 362.451 137.926 359.269 137.844Z" fill="#EFC3A1"/>
<path opacity="0.2" d="M362.308 144.663C362.198 144.659 359.016 139.027 358.715 139.159C359.484 142.363 362.168 153.428 361.889 154.563C363.243 154.596 366.579 153.732 366.579 153.732C366.579 153.732 365.49 144.745 362.308 144.663Z" fill="#EFB996"/>
<path d="M376.213 145.214C375.628 144.466 372.616 140.548 371.168 140.341C369.721 140.134 362.018 133.612 359.843 133.405C357.671 133.199 348.589 134.333 348.796 135.261C349.004 136.189 350.037 137.944 352.42 138.151C354.798 138.357 358.267 138.203 358.267 138.203C358.267 138.203 361.121 144.481 362.207 144.868C362.897 145.113 363.176 149.238 363.9 150.271C363.9 150.271 363.304 153.059 361.588 150.861C361.415 150.639 361.249 150.391 361.083 150.132C361.068 150.196 361.057 150.264 361.042 150.327C361.042 150.369 361.046 150.414 361.046 150.455C360.985 153.326 358.636 154.505 356.182 154.186C356.808 155.88 357.166 157.154 357.453 157.834C358.463 160.235 361.098 161.261 362.652 163.147C364.269 165.119 365.615 168.422 365.615 168.936H378.652C378.644 168.933 378.151 147.69 376.213 145.214Z" fill="#F7D1AF"/>
<path d="M354.383 138.248C354.922 138.26 355.457 138.26 355.951 138.26C355.936 138.226 355.925 138.207 355.925 138.207C355.925 138.207 355.291 138.23 354.383 138.248Z" fill="#FDDEC8"/>
<path d="M376.213 145.214C375.628 144.467 372.616 140.548 371.168 140.341C369.72 140.135 362.018 133.612 359.843 133.406C359.387 133.361 358.621 133.38 357.705 133.44C360.114 133.981 367.421 140.142 368.831 140.341C370.278 140.548 374.139 144.876 374.723 145.62C376.665 148.096 377.344 168.929 377.344 168.929H378.644C378.644 168.933 378.15 147.69 376.213 145.214Z" fill="#FDDEC8"/>
<path d="M379.135 167.803C378.163 167.72 375.754 167.555 371.874 167.555C367.995 167.555 365.582 167.72 364.613 167.803C364.334 167.825 364.119 168.058 364.119 168.336V170.94H379.629V168.336C379.629 168.058 379.414 167.829 379.135 167.803Z" fill="white"/>
<path d="M364.115 168.934V170.944H379.625V170.136C378.344 170.038 375.765 169.888 371.87 169.888C369.205 169.892 364.534 169.249 364.115 168.934Z" fill="#E2E3E4"/>
<path d="M380.616 170.883C379.557 170.729 376.371 170.338 371.711 170.338C367.093 170.338 364.129 170.725 363.123 170.879C362.904 170.913 362.738 171.101 362.738 171.322V177.999H381.001V171.33C381.001 171.104 380.839 170.916 380.616 170.883Z" fill="#46474C"/>
<path d="M365.163 171.785C364.436 171.785 363.844 172.375 363.844 173.1C363.844 173.825 364.436 174.415 365.163 174.415C365.891 174.415 366.483 173.825 366.483 173.1C366.483 172.375 365.891 171.785 365.163 171.785Z" fill="#FED070"/>
<path opacity="0.3" d="M362.742 171.785V177.999H381.005V176.023C381.001 175.801 367.157 177.673 362.742 171.785Z" fill="#393E45"/>
<path opacity="0.2" d="M352.166 168.968L291 160.687L299.147 107.152H358.711L352.166 168.968Z" fill="#BFBFBB"/>
<path d="M369.701 82.7317L306.193 73.998L294.672 157.202L358.18 165.936L369.701 82.7317Z" fill="white"/>
<path d="M322.759 94.0637L303.775 91.4531L294.67 157.206L313.654 159.816L322.759 94.0637Z" fill="#FED070"/>
<path d="M369.699 82.7339L325.178 76.6113L322.761 94.0627L367.282 100.185L369.699 82.7339Z" fill="#CCE8FB"/>
<path d="M367.285 100.187L322.764 94.0645L322.522 95.81L367.043 101.933L367.285 100.187Z" fill="#FED070"/>
<path d="M358.482 164.214L313.961 158.092L313.719 159.837L358.24 165.96L358.482 164.214Z" fill="#FED070"/>
<path d="M337.951 87.2582L330.659 86.2551C329.694 86.1236 329.019 85.2369 329.151 84.2751C329.283 83.3133 330.173 82.6408 331.138 82.7723L338.429 83.7754C339.395 83.9069 340.069 84.7936 339.938 85.7554C339.806 86.721 338.916 87.3935 337.951 87.2582Z" fill="white"/>
<path d="M353.137 89.3464L342.663 87.9074C341.698 87.776 341.023 86.8893 341.155 85.9275C341.287 84.9656 342.177 84.2931 343.142 84.4246L353.615 85.8636C354.581 85.9951 355.255 86.8818 355.123 87.8436C354.991 88.8054 354.102 89.4779 353.137 89.3464Z" fill="white"/>
<path d="M336.59 89.9735L328.85 88.9103C328.669 88.884 328.544 88.7187 328.567 88.5383C328.593 88.358 328.759 88.234 328.94 88.2565L336.68 89.3198C336.861 89.3461 336.986 89.5114 336.963 89.6918C336.937 89.8721 336.767 89.9961 336.59 89.9735Z" fill="white"/>
<path d="M345.988 91.2665L338.248 90.2033C338.067 90.177 337.943 90.0116 337.966 89.8313C337.992 89.651 338.158 89.527 338.339 89.5495L346.079 90.6128C346.26 90.6391 346.384 90.8044 346.362 90.9847C346.335 91.1651 346.169 91.2891 345.988 91.2665Z" fill="white"/>
<path d="M354.162 92.3896L347.869 91.5255C347.688 91.4992 347.564 91.3339 347.587 91.1536C347.613 90.9732 347.779 90.8492 347.96 90.8718L354.252 91.7359C354.433 91.7622 354.558 91.9275 354.535 92.1079C354.509 92.2882 354.343 92.4159 354.162 92.3896Z" fill="white"/>
<path d="M332.654 91.4506L328.574 90.8908C328.394 90.8645 328.269 90.6991 328.292 90.5188C328.318 90.3385 328.484 90.2145 328.665 90.237L332.744 90.7968C332.925 90.8231 333.05 90.9884 333.027 91.1688C333.001 91.3491 332.831 91.4769 332.654 91.4506Z" fill="white"/>
<path d="M338.683 92.2806L334.604 91.7208C334.423 91.6945 334.298 91.5292 334.321 91.3489C334.347 91.1685 334.513 91.0446 334.694 91.0671L338.774 91.6269C338.954 91.6532 339.079 91.8185 339.056 91.9989C339.03 92.1792 338.86 92.3032 338.683 92.2806Z" fill="white"/>
<path d="M348.639 93.6474L340.907 92.5841C340.726 92.5578 340.601 92.3925 340.624 92.2122C340.65 92.0318 340.816 91.9078 340.997 91.9304L348.729 92.9936C348.91 93.0199 349.035 93.1852 349.012 93.3656C348.986 93.5459 348.82 93.6737 348.639 93.6474Z" fill="white"/>
<path d="M353.887 94.3692L350.653 93.9259C350.472 93.8996 350.347 93.7343 350.37 93.554C350.396 93.3736 350.562 93.2496 350.743 93.2722L353.978 93.7155C354.159 93.7418 354.283 93.9071 354.261 94.0875C354.234 94.2678 354.068 94.3955 353.887 94.3692Z" fill="white"/>
<path d="M335.15 106.452L326.641 105.283C326.46 105.257 326.336 105.092 326.358 104.911C326.385 104.731 326.55 104.607 326.731 104.63L335.24 105.798C335.421 105.824 335.546 105.99 335.523 106.17C335.497 106.354 335.331 106.478 335.15 106.452Z" fill="#6DAFDC"/>
<path d="M340.035 107.125L337.162 106.731C336.981 106.704 336.857 106.539 336.88 106.359C336.906 106.178 337.072 106.054 337.253 106.077L340.126 106.471C340.307 106.498 340.431 106.663 340.408 106.843C340.382 107.024 340.216 107.151 340.035 107.125Z" fill="#6DAFDC"/>
<path d="M349.167 108.383L342.049 107.406C341.868 107.38 341.744 107.215 341.766 107.034C341.793 106.854 341.959 106.73 342.14 106.753L349.258 107.729C349.438 107.756 349.563 107.921 349.54 108.101C349.514 108.282 349.348 108.406 349.167 108.383Z" fill="#6DAFDC"/>
<path d="M355.591 109.267L351.504 108.703C351.323 108.677 351.199 108.512 351.221 108.331C351.248 108.151 351.414 108.027 351.595 108.05L355.681 108.613C355.862 108.639 355.987 108.805 355.964 108.985C355.938 109.165 355.772 109.289 355.591 109.267Z" fill="#6DAFDC"/>
<path d="M333.86 110.36L326.082 109.289C325.901 109.263 325.777 109.098 325.8 108.917C325.826 108.737 325.992 108.613 326.173 108.635L333.95 109.706C334.131 109.733 334.256 109.898 334.233 110.078C334.207 110.262 334.041 110.386 333.86 110.36Z" fill="#6DAFDC"/>
<path d="M338.354 110.98L335.764 110.623C335.583 110.597 335.459 110.432 335.481 110.251C335.508 110.071 335.673 109.947 335.854 109.969L338.444 110.326C338.625 110.353 338.75 110.518 338.727 110.698C338.701 110.879 338.535 111.006 338.354 110.98Z" fill="#6DAFDC"/>
<path d="M346.758 112.133L340.262 111.238C340.081 111.212 339.957 111.047 339.979 110.866C340.006 110.686 340.171 110.562 340.352 110.585L346.848 111.479C347.029 111.505 347.154 111.67 347.131 111.851C347.105 112.035 346.939 112.159 346.758 112.133Z" fill="#6DAFDC"/>
<path d="M352.063 110.084L355.415 110.546C355.596 110.572 355.72 110.737 355.698 110.918C355.671 111.098 355.506 111.222 355.325 111.199L351.973 110.737C351.792 110.711 351.668 110.546 351.69 110.365C351.717 110.181 351.882 110.057 352.063 110.084Z" fill="#6DAFDC"/>
<path d="M345.944 109.244L349.707 109.762C349.888 109.789 350.012 109.954 349.99 110.134C349.963 110.315 349.797 110.439 349.616 110.416L345.854 109.897C345.673 109.871 345.548 109.706 345.571 109.526C345.597 109.341 345.763 109.217 345.944 109.244Z" fill="#6DAFDC"/>
<path d="M334.505 107.669L343.583 108.917C343.764 108.943 343.889 109.108 343.866 109.289C343.84 109.469 343.674 109.593 343.493 109.571L334.414 108.323C334.233 108.297 334.109 108.132 334.132 107.951C334.158 107.771 334.328 107.643 334.505 107.669Z" fill="#6DAFDC"/>
<path d="M326.464 106.564L332.228 107.357C332.409 107.383 332.534 107.548 332.511 107.729C332.485 107.909 332.319 108.033 332.138 108.011L326.373 107.218C326.192 107.191 326.068 107.026 326.091 106.846C326.117 106.662 326.283 106.538 326.464 106.564Z" fill="#6DAFDC"/>
<path d="M335.524 103.969L327.455 102.86C327.014 102.8 326.709 102.395 326.769 101.955C326.83 101.515 327.237 101.211 327.98 101.271L336.048 102.38C336.183 102.44 336.492 102.845 336.432 103.285C336.372 103.725 335.965 104.033 335.524 103.969Z" fill="#6D95B8"/>
<path d="M343.457 105.02L338.341 104.318C337.598 104.257 337.289 103.852 337.349 103.412C337.409 102.972 337.817 102.668 338.258 102.728L343.374 103.431C343.815 103.491 344.12 103.897 344.06 104.336C344 104.772 343.592 105.08 343.457 105.02Z" fill="#6D95B8"/>
<path d="M333.158 120.842L324.649 119.674C324.468 119.648 324.343 119.482 324.366 119.302C324.392 119.122 324.558 118.998 324.739 119.02L333.248 120.189C333.429 120.215 333.554 120.38 333.531 120.561C333.505 120.741 333.335 120.865 333.158 120.842Z" fill="#6DAFDC"/>
<path d="M338.043 121.512L335.17 121.117C334.989 121.091 334.865 120.926 334.887 120.745C334.914 120.565 335.08 120.441 335.261 120.464L338.133 120.858C338.314 120.884 338.439 121.05 338.416 121.23C338.39 121.414 338.22 121.538 338.043 121.512Z" fill="#6DAFDC"/>
<path d="M347.175 122.77L340.057 121.793C339.876 121.767 339.752 121.601 339.774 121.421C339.801 121.241 339.966 121.117 340.147 121.139L347.265 122.116C347.446 122.143 347.571 122.308 347.548 122.488C347.522 122.668 347.356 122.792 347.175 122.77Z" fill="#6DAFDC"/>
<path d="M353.595 123.654L349.508 123.09C349.327 123.064 349.203 122.898 349.225 122.718C349.252 122.538 349.418 122.414 349.599 122.436L353.685 123C353.866 123.026 353.991 123.191 353.968 123.372C353.942 123.552 353.776 123.676 353.595 123.654Z" fill="#6DAFDC"/>
<path d="M350.071 124.47L353.423 124.932C353.604 124.959 353.728 125.124 353.706 125.304C353.679 125.485 353.513 125.609 353.332 125.586L349.981 125.124C349.8 125.098 349.675 124.932 349.698 124.752C349.724 124.572 349.89 124.444 350.071 124.47Z" fill="#6DAFDC"/>
<path d="M343.948 123.63L347.711 124.149C347.892 124.175 348.016 124.34 347.993 124.521C347.967 124.701 347.801 124.825 347.62 124.803L343.858 124.284C343.677 124.258 343.552 124.093 343.575 123.912C343.601 123.732 343.771 123.604 343.948 123.63Z" fill="#6DAFDC"/>
<path d="M332.513 122.055L341.591 123.303C341.772 123.329 341.896 123.494 341.874 123.675C341.847 123.855 341.682 123.979 341.501 123.956L332.422 122.709C332.241 122.683 332.117 122.518 332.139 122.337C332.166 122.157 332.332 122.033 332.513 122.055Z" fill="#6DAFDC"/>
<path d="M324.468 120.951L330.232 121.743C330.413 121.77 330.538 121.935 330.515 122.115C330.489 122.296 330.323 122.42 330.142 122.397L324.377 121.604C324.196 121.578 324.072 121.413 324.094 121.232C324.121 121.052 324.29 120.924 324.468 120.951Z" fill="#6DAFDC"/>
<path d="M333.61 116.71L341.678 117.818C342.119 117.878 342.424 118.284 342.364 118.723C342.303 119.163 341.896 119.467 341.455 119.407L333.387 118.299C332.946 118.239 332.641 117.833 332.701 117.393C332.765 116.954 333.168 116.646 333.61 116.71Z" fill="#6D95B8"/>
<path d="M325.983 115.658L331.099 116.36C331.235 116.421 331.544 116.826 331.484 117.266C331.424 117.706 331.017 118.01 330.575 117.95L325.459 117.247C325.018 117.187 324.713 116.781 324.773 116.342C324.834 115.906 325.241 115.598 325.983 115.658Z" fill="#6D95B8"/>
<path d="M331.451 133.151L322.942 131.983C322.761 131.956 322.636 131.791 322.659 131.611C322.685 131.43 322.851 131.306 323.032 131.329L331.541 132.497C331.722 132.524 331.847 132.689 331.824 132.869C331.798 133.05 331.632 133.174 331.451 133.151Z" fill="#6DAFDC"/>
<path d="M336.34 133.824L333.467 133.43C333.286 133.404 333.162 133.238 333.184 133.058C333.211 132.878 333.377 132.754 333.558 132.776L336.43 133.171C336.611 133.197 336.736 133.362 336.713 133.543C336.687 133.723 336.517 133.847 336.34 133.824Z" fill="#6DAFDC"/>
<path d="M345.472 135.079L338.354 134.102C338.173 134.075 338.048 133.91 338.071 133.73C338.097 133.549 338.263 133.425 338.444 133.448L345.562 134.425C345.743 134.451 345.868 134.616 345.845 134.797C345.819 134.977 345.653 135.105 345.472 135.079Z" fill="#6DAFDC"/>
<path d="M351.892 135.962L347.805 135.399C347.624 135.372 347.5 135.207 347.522 135.027C347.549 134.846 347.714 134.722 347.895 134.745L351.982 135.308C352.163 135.335 352.288 135.5 352.265 135.68C352.239 135.861 352.073 135.988 351.892 135.962Z" fill="#6DAFDC"/>
<path d="M330.165 137.059L322.387 135.988C322.206 135.962 322.082 135.797 322.104 135.616C322.131 135.436 322.296 135.312 322.477 135.335L330.255 136.405C330.436 136.432 330.561 136.597 330.538 136.777C330.512 136.958 330.346 137.085 330.165 137.059Z" fill="#6DAFDC"/>
<path d="M334.659 137.675L332.069 137.318C331.888 137.292 331.763 137.127 331.786 136.947C331.812 136.766 331.978 136.642 332.159 136.665L334.749 137.022C334.93 137.048 335.055 137.213 335.032 137.394C335.006 137.578 334.84 137.702 334.659 137.675Z" fill="#6DAFDC"/>
<path d="M343.059 138.832L336.563 137.938C336.382 137.911 336.257 137.746 336.28 137.566C336.306 137.385 336.472 137.261 336.653 137.284L343.149 138.178C343.33 138.204 343.455 138.37 343.432 138.55C343.406 138.73 343.24 138.858 343.059 138.832Z" fill="#6DAFDC"/>
<path d="M348.368 136.779L351.72 137.241C351.901 137.267 352.025 137.433 352.002 137.613C351.976 137.793 351.81 137.917 351.629 137.895L348.278 137.433C348.097 137.406 347.972 137.241 347.995 137.061C348.021 136.88 348.187 136.753 348.368 136.779Z" fill="#6DAFDC"/>
<path d="M342.245 135.939L346.008 136.457C346.189 136.484 346.313 136.649 346.29 136.829C346.264 137.01 346.098 137.134 345.917 137.111L342.155 136.593C341.974 136.566 341.849 136.401 341.872 136.221C341.898 136.04 342.068 135.913 342.245 135.939Z" fill="#6DAFDC"/>
<path d="M330.809 134.364L339.888 135.611C340.069 135.638 340.193 135.803 340.171 135.983C340.144 136.164 339.978 136.288 339.797 136.265L330.719 135.018C330.538 134.991 330.414 134.826 330.436 134.646C330.463 134.465 330.629 134.341 330.809 134.364Z" fill="#6DAFDC"/>
<path d="M322.765 133.259L328.529 134.052C328.71 134.078 328.834 134.244 328.812 134.424C328.785 134.604 328.62 134.728 328.439 134.706L322.674 133.913C322.493 133.887 322.369 133.721 322.391 133.541C322.418 133.361 322.584 133.233 322.765 133.259Z" fill="#6DAFDC"/>
<path d="M332.129 130.668L324.061 129.56C323.62 129.5 323.314 129.094 323.375 128.654C323.435 128.215 323.842 127.91 324.283 127.97L332.351 129.079C332.793 129.139 333.098 129.545 333.038 129.984C332.977 130.42 332.57 130.728 332.129 130.668Z" fill="#6D95B8"/>
<path d="M339.454 131.715L334.338 131.013C333.897 130.953 333.592 130.547 333.652 130.107C333.712 129.668 334.12 129.363 334.561 129.424L339.677 130.126C340.118 130.186 340.423 130.592 340.363 131.032C340.299 131.471 339.892 131.776 339.454 131.715Z" fill="#6D95B8"/>
<path d="M329.546 146.905L321.037 145.736C320.856 145.71 320.732 145.545 320.755 145.365C320.781 145.184 320.947 145.06 321.128 145.083L329.637 146.251C329.818 146.277 329.942 146.443 329.92 146.623C329.893 146.803 329.727 146.931 329.546 146.905Z" fill="#6DAFDC"/>
<path d="M334.432 147.578L331.559 147.184C331.378 147.157 331.253 146.992 331.276 146.812C331.302 146.631 331.468 146.507 331.649 146.53L334.522 146.924C334.703 146.951 334.828 147.116 334.805 147.296C334.779 147.477 334.613 147.605 334.432 147.578Z" fill="#6DAFDC"/>
<path d="M343.564 148.832L336.446 147.856C336.265 147.829 336.14 147.664 336.163 147.484C336.189 147.303 336.355 147.179 336.536 147.202L343.654 148.179C343.835 148.205 343.959 148.37 343.937 148.551C343.91 148.731 343.744 148.859 343.564 148.832Z" fill="#6DAFDC"/>
<path d="M349.987 149.716L345.901 149.152C345.72 149.126 345.595 148.961 345.618 148.781C345.644 148.6 345.81 148.476 345.991 148.499L350.078 149.062C350.259 149.089 350.383 149.254 350.361 149.434C350.334 149.615 350.168 149.742 349.987 149.716Z" fill="#6DAFDC"/>
<path d="M328.257 150.813L320.483 149.742C320.302 149.716 320.177 149.551 320.2 149.37C320.226 149.19 320.392 149.066 320.573 149.089L328.351 150.159C328.532 150.186 328.656 150.351 328.634 150.531C328.603 150.712 328.438 150.839 328.257 150.813Z" fill="#6DAFDC"/>
<path d="M332.754 151.433L330.164 151.076C329.983 151.05 329.859 150.885 329.882 150.704C329.908 150.524 330.074 150.4 330.255 150.423L332.845 150.779C333.026 150.806 333.15 150.971 333.128 151.151C333.101 151.332 332.935 151.456 332.754 151.433Z" fill="#6DAFDC"/>
<path d="M341.154 152.586L334.658 151.692C334.477 151.665 334.353 151.5 334.376 151.32C334.402 151.139 334.568 151.015 334.749 151.038L341.245 151.932C341.426 151.958 341.55 152.124 341.528 152.304C341.501 152.484 341.335 152.612 341.154 152.586Z" fill="#6DAFDC"/>
<path d="M346.46 150.534L349.812 150.996C349.992 151.022 350.117 151.188 350.094 151.368C350.068 151.548 349.902 151.672 349.721 151.65L346.369 151.188C346.188 151.161 346.064 150.996 346.087 150.816C346.113 150.635 346.279 150.511 346.46 150.534Z" fill="#6DAFDC"/>
<path d="M340.341 149.694L344.103 150.213C344.284 150.239 344.409 150.404 344.386 150.584C344.36 150.765 344.194 150.889 344.013 150.866L340.25 150.348C340.069 150.321 339.945 150.156 339.967 149.976C339.994 149.795 340.16 149.672 340.341 149.694Z" fill="#6DAFDC"/>
<path d="M328.905 148.123L337.984 149.37C338.165 149.396 338.289 149.562 338.266 149.742C338.24 149.922 338.074 150.046 337.893 150.024L328.815 148.776C328.634 148.75 328.509 148.585 328.532 148.404C328.558 148.22 328.724 148.096 328.905 148.123Z" fill="#6DAFDC"/>
<path d="M320.86 147.014L326.625 147.807C326.806 147.833 326.93 147.999 326.908 148.179C326.881 148.359 326.715 148.483 326.534 148.461L320.77 147.668C320.589 147.642 320.464 147.476 320.487 147.296C320.513 147.116 320.679 146.992 320.86 147.014Z" fill="#6DAFDC"/>
<path d="M329.924 144.422L321.856 143.314C321.415 143.254 321.109 142.848 321.17 142.408C321.23 141.969 321.637 141.664 322.078 141.724L330.146 142.833C330.587 142.893 330.893 143.299 330.832 143.738C330.768 144.178 330.361 144.482 329.924 144.422Z" fill="#6D95B8"/>
<path d="M337.546 145.469L332.43 144.767C331.989 144.707 331.684 144.301 331.744 143.861C331.804 143.422 332.211 143.117 332.653 143.177L337.769 143.88C338.21 143.94 338.515 144.346 338.455 144.786C338.394 145.225 337.987 145.529 337.546 145.469Z" fill="#6D95B8"/>
<path d="M314.775 104.225L307.035 103.162C306.854 103.136 306.73 102.971 306.753 102.79C306.779 102.61 306.945 102.486 307.126 102.509L314.866 103.572C315.047 103.598 315.171 103.763 315.149 103.944C315.122 104.124 314.953 104.252 314.775 104.225Z" fill="white"/>
<path d="M314.297 108.155L306.557 107.092C306.376 107.066 306.252 106.9 306.274 106.72C306.301 106.54 306.466 106.416 306.647 106.438L314.387 107.501C314.568 107.528 314.693 107.693 314.67 107.873C314.644 108.057 314.478 108.181 314.297 108.155Z" fill="white"/>
<path d="M310.839 105.706L306.76 105.147C306.579 105.12 306.455 104.955 306.477 104.775C306.504 104.594 306.67 104.47 306.851 104.493L310.93 105.053C311.111 105.079 311.235 105.244 311.213 105.425C311.186 105.605 311.02 105.729 310.839 105.706Z" fill="white"/>
<path d="M316.868 106.533L312.785 105.973C312.604 105.946 312.48 105.781 312.503 105.601C312.529 105.42 312.695 105.297 312.876 105.319L316.955 105.879C317.136 105.905 317.261 106.07 317.238 106.251C317.215 106.435 317.046 106.559 316.868 106.533Z" fill="white"/>
<path d="M314.018 110.14L306.285 109.076C306.104 109.05 305.98 108.885 306.003 108.704C306.029 108.524 306.195 108.4 306.376 108.423L314.108 109.486C314.289 109.512 314.414 109.677 314.391 109.858C314.365 110.038 314.199 110.162 314.018 110.14Z" fill="white"/>
<path d="M312.735 100.87L307.993 100.216C307.551 100.156 307.246 99.7501 307.306 99.3105C307.367 98.8709 307.774 98.5666 308.215 98.6267L312.958 99.2804C313.399 99.3406 313.704 99.7463 313.644 100.186C313.58 100.625 313.173 100.93 312.735 100.87Z" fill="white"/>
<path d="M312.859 118.056L305.119 116.992C304.938 116.966 304.814 116.801 304.837 116.62C304.863 116.44 305.029 116.316 305.21 116.339L312.95 117.402C313.131 117.428 313.255 117.593 313.233 117.774C313.206 117.954 313.037 118.082 312.859 118.056Z" fill="white"/>
<path d="M312.381 121.985L304.641 120.922C304.46 120.896 304.336 120.73 304.358 120.55C304.385 120.37 304.55 120.246 304.731 120.268L312.471 121.332C312.652 121.358 312.777 121.523 312.754 121.703C312.728 121.884 312.562 122.012 312.381 121.985Z" fill="white"/>
<path d="M308.923 119.533L304.844 118.973C304.663 118.946 304.539 118.781 304.561 118.601C304.588 118.42 304.754 118.297 304.934 118.319L309.014 118.879C309.195 118.905 309.319 119.07 309.297 119.251C309.27 119.435 309.104 119.559 308.923 119.533Z" fill="white"/>
<path d="M314.953 120.363L310.873 119.803C310.692 119.777 310.568 119.611 310.591 119.431C310.617 119.251 310.783 119.127 310.964 119.149L315.043 119.709C315.224 119.735 315.348 119.901 315.326 120.081C315.299 120.261 315.13 120.389 314.953 120.363Z" fill="white"/>
<path d="M312.102 123.966L304.369 122.902C304.188 122.876 304.064 122.711 304.087 122.531C304.113 122.35 304.279 122.226 304.46 122.249L312.192 123.312C312.373 123.338 312.498 123.504 312.475 123.684C312.449 123.864 312.283 123.992 312.102 123.966Z" fill="white"/>
<path d="M310.819 114.7L306.077 114.046C305.635 113.986 305.33 113.58 305.39 113.141C305.451 112.701 305.858 112.397 306.299 112.457L311.042 113.111C311.483 113.171 311.788 113.576 311.728 114.016C311.664 114.452 311.26 114.76 310.819 114.7Z" fill="white"/>
<path d="M310.943 131.886L303.203 130.822C303.022 130.796 302.898 130.631 302.921 130.45C302.947 130.27 303.113 130.146 303.294 130.169L311.034 131.232C311.215 131.258 311.339 131.424 311.317 131.604C311.29 131.784 311.124 131.908 310.943 131.886Z" fill="white"/>
<path d="M310.465 135.815L302.725 134.752C302.544 134.726 302.419 134.56 302.442 134.38C302.468 134.2 302.634 134.076 302.815 134.098L310.555 135.162C310.736 135.188 310.861 135.353 310.838 135.534C310.812 135.714 310.646 135.838 310.465 135.815Z" fill="white"/>
<path d="M307.007 133.363L302.928 132.803C302.747 132.777 302.623 132.611 302.645 132.431C302.672 132.251 302.838 132.127 303.018 132.149L307.098 132.709C307.279 132.735 307.403 132.901 307.38 133.081C307.354 133.261 307.188 133.389 307.007 133.363Z" fill="white"/>
<path d="M313.037 134.193L308.957 133.633C308.776 133.607 308.652 133.441 308.675 133.261C308.701 133.081 308.867 132.957 309.048 132.979L313.127 133.539C313.308 133.565 313.432 133.731 313.41 133.911C313.383 134.091 313.218 134.215 313.037 134.193Z" fill="white"/>
<path d="M308.903 128.526L304.161 127.872C303.719 127.812 303.414 127.406 303.474 126.967C303.535 126.527 303.942 126.223 304.383 126.283L309.126 126.937C309.567 126.997 309.872 127.403 309.812 127.842C309.748 128.282 309.344 128.59 308.903 128.526Z" fill="white"/>
<path d="M309.221 144.317L301.481 143.254C301.3 143.228 301.175 143.062 301.198 142.882C301.224 142.702 301.39 142.578 301.571 142.6L309.311 143.664C309.492 143.69 309.617 143.855 309.594 144.036C309.568 144.22 309.402 144.344 309.221 144.317Z" fill="white"/>
<path d="M308.742 148.251L301.002 147.188C300.821 147.161 300.697 146.996 300.719 146.816C300.746 146.635 300.912 146.511 301.093 146.534L308.833 147.597C309.014 147.623 309.138 147.789 309.115 147.969C309.089 148.149 308.923 148.273 308.742 148.251Z" fill="white"/>
<path d="M305.285 145.798L301.205 145.238C301.024 145.212 300.9 145.047 300.923 144.866C300.949 144.686 301.115 144.562 301.296 144.585L305.375 145.144C305.556 145.171 305.68 145.336 305.658 145.516C305.631 145.697 305.466 145.821 305.285 145.798Z" fill="white"/>
<path d="M311.314 146.624L307.235 146.065C307.054 146.038 306.929 145.873 306.952 145.693C306.978 145.512 307.144 145.388 307.325 145.411L311.404 145.971C311.585 145.997 311.71 146.162 311.687 146.343C311.661 146.527 311.495 146.651 311.314 146.624Z" fill="white"/>
<path d="M308.463 150.231L300.731 149.168C300.55 149.142 300.425 148.976 300.448 148.796C300.474 148.616 300.64 148.492 300.821 148.514L308.554 149.578C308.735 149.604 308.859 149.769 308.836 149.95C308.81 150.13 308.644 150.254 308.463 150.231Z" fill="white"/>
<path d="M307.181 140.961L302.438 140.308C301.997 140.248 301.691 139.842 301.752 139.402C301.812 138.963 302.219 138.658 302.66 138.719L307.403 139.372C307.844 139.432 308.15 139.838 308.089 140.278C308.029 140.717 307.622 141.022 307.181 140.961Z" fill="white"/>
<path d="M309.987 79.4059L308.002 93.7422L318.791 95.226L320.777 80.8897L309.987 79.4059Z" fill="#CCE8FB"/>
<path d="M313.248 86.9859L312.9 89.498L315.264 89.8232L315.612 87.311L313.248 86.9859Z" fill="#EFC3A1"/>
<path d="M316.983 85.1644C317.27 83.902 317.319 82.9214 316.58 82.681C316.678 82.1888 316.105 81.5801 314.608 81.6478C313.002 81.7229 312.32 82.8049 312.501 84.5445C312.176 84.4919 311.954 84.8112 312.037 85.1794C312.097 85.4499 312.222 85.6603 312.346 85.7993C312.399 85.8595 312.489 85.8933 312.591 85.9083C312.712 86.5771 312.908 87.1256 313.036 87.4337C313.213 87.8582 313.741 88.0912 314.28 88.1625C314.819 88.2377 315.389 88.1588 315.675 87.7944C315.882 87.5314 316.226 87.058 316.52 86.4456C316.621 86.4568 316.716 86.4493 316.784 86.4042C316.942 86.3028 317.119 86.1337 317.251 85.8895C317.436 85.5702 317.311 85.202 316.983 85.1644Z" fill="#F7D1AF"/>
<path d="M315.493 88.1394L314.102 89.5032L313.133 87.8125C312.522 87.9553 311.267 89.6009 310.913 89.9014C310.536 90.2208 309.736 93.2716 309.736 93.2716L313.457 93.7825L313.555 93.7975L317.277 94.3085C317.277 94.3085 317.337 91.1563 317.062 90.7468C316.802 90.3636 316.044 88.4399 315.493 88.1394Z" fill="white"/>
<path d="M316.895 82.5715C316.956 82.0342 316.537 80.9634 314.931 81.2978C313.563 81.5833 312.556 82.0455 312.473 83.15C312.386 84.326 312.428 84.5477 312.428 84.5477L312.62 85.0662C312.62 85.0662 312.88 83.0486 313.744 83.0636C314.603 83.0749 316.296 83.4393 316.681 83.2139C316.658 83.7023 316.82 84.0743 316.828 84.4876C316.835 84.9347 316.805 85.5583 316.805 85.5583C316.805 85.5583 316.993 85.4531 317.103 85.2089C317.22 84.9572 318.125 82.9735 316.895 82.5715Z" fill="#716F53"/>
<path d="M314.32 89.9998L314.101 89.5039L313.758 89.9209L313.883 90.1501L313.227 93.1145L313.528 93.6292L313.962 93.2159L314.135 90.1839L314.32 89.9998Z" fill="#8DB6D1"/>
<path d="M310.294 88.5272C309.834 88.8315 308.764 93.1447 308.764 93.1447L313.506 93.7984L313.635 92.8591L312.877 87.9336C312.115 88.3093 310.732 88.2342 310.294 88.5272Z" fill="#5F6062"/>
<path d="M312.503 89.7824L312.036 89.7185L311.915 88.3848C311.723 89.324 311.968 90.1544 312.187 90.9433C312.53 92.1945 312.986 93.5545 312.986 93.5545L312.16 90.0492L312.503 89.7824Z" fill="#565759"/>
<path d="M315.704 88.3164L313.638 92.855L313.51 93.7942L318.253 94.448C318.253 94.448 318.396 90.0109 318.034 89.5901C317.691 89.1918 316.337 88.8912 315.704 88.3164Z" fill="#5F6062"/>
<path d="M316.029 90.2669L315.561 90.203L315.818 90.5524L314.068 93.7046C314.068 93.7046 314.879 92.5211 315.55 91.409C315.972 90.7065 316.436 89.9738 316.508 89.0195L316.029 90.2669Z" fill="#565759"/>
<path opacity="0.2" d="M360.277 152.484C360.277 152.484 352.507 144.91 349.721 144.185C346.931 143.463 343.56 144.237 345.325 145.996C348.906 149.569 349.532 151.413 350.414 153.266C351.964 156.515 358.614 162.824 358.4 164.383L360.277 152.484Z" fill="#BFBFBB"/>
<path d="M361.881 162.648C362.748 163.704 363.811 165.079 364.354 166.266C365.41 166.015 366.221 165.947 367.314 165.883C367.095 165.323 366.873 164.763 366.662 164.2C365.9 162.175 365.161 160.041 364.939 157.873C364.577 157.088 364.207 156.303 363.823 155.525C363.099 154.067 362.292 152.681 361.798 151.174C361.523 151.091 361.199 150.847 360.822 150.366C359.842 149.111 359.023 147.075 358.085 145.899C357.361 144.994 353.99 142.228 350.45 143.277C347.822 144.054 348.844 146.433 350.658 147.56C351.883 148.322 353.806 149.855 354.367 151.118C355.698 154.105 356.264 156.344 356.682 157.339C357.693 159.736 360.332 160.762 361.881 162.648Z" fill="#F7D1AF"/>
<path d="M349.086 144.599C348.841 145.095 349.237 146.203 349.787 146.748C350.126 147.086 350.771 147.744 351.8 148.108C351.8 148.108 351.043 146.057 351.879 144.546C352.053 144.231 349.433 143.9 349.086 144.599Z" fill="url(#paint0_linear_2_17)"/>
<path d="M351.072 143.156C353.44 143.603 355.359 145.241 355.887 145.894C356.825 147.07 357.644 149.103 358.624 150.362C359.917 152.015 360.573 150.85 360.818 150.17C359.898 148.908 359.118 147.014 358.224 145.898C357.53 145.034 354.431 142.479 351.072 143.156Z" fill="#FDDEC8"/>
</g>
</g>
<path d="M264.678 131.615L287.524 109.497C288.157 108.756 288.898 108.149 289.667 107.624C285.178 100.049 282.604 91.2208 282.604 81.786C282.604 53.7378 305.342 31 333.39 31C361.438 31 384.189 53.7378 384.189 81.786C384.189 109.848 361.438 132.572 333.39 132.572C322.729 132.572 312.836 129.283 304.668 123.663C304.574 123.771 304.52 123.905 304.425 124L281.58 146.118C277.577 150.781 270.554 151.32 265.891 147.317C261.228 143.314 260.675 136.292 264.678 131.615ZM333.39 122.558C355.912 122.558 374.148 104.322 374.148 81.786C374.148 59.2908 355.899 41.0278 333.39 41.0278C310.881 41.0278 292.632 59.2908 292.632 81.786C292.645 104.308 310.881 122.558 333.39 122.558Z" fill="#2D4CE8"/>
<path d="M604.54 133.234H522V59.023C522 56.8015 523.802 55 526.023 55H600.521C602.742 55 604.544 56.8015 604.544 59.023V133.234H604.54Z" fill="white"/>
<mask id="mask0_2_17" style="mask-type:luminance" maskUnits="userSpaceOnUse" x="522" y="55" width="83" height="79">
<path d="M604.54 133.234H522V59.023C522 56.8015 523.802 55 526.023 55H600.521C602.742 55 604.544 56.8015 604.544 59.023V133.234H604.54Z" fill="white"/>
</mask>
<g mask="url(#mask0_2_17)">
<path d="M611.806 50.9336H517.305V61.9402H611.806V50.9336Z" fill="white"/>
</g>
<path d="M528.323 58.6605C528.853 58.6605 529.282 58.2315 529.282 57.7023C529.282 57.1731 528.853 56.7441 528.323 56.7441C527.794 56.7441 527.365 57.1731 527.365 57.7023C527.365 58.2315 527.794 58.6605 528.323 58.6605Z" fill="#F9C32D"/>
<path d="M526.182 57.7023C526.182 58.2299 525.755 58.6605 525.224 58.6605C524.696 58.6605 524.266 58.2335 524.266 57.7023C524.266 57.1748 524.693 56.7441 525.224 56.7441C525.755 56.7441 526.182 57.1748 526.182 57.7023Z" fill="#EA4747"/>
<path d="M532.369 57.7023C532.369 58.2299 531.942 58.6605 531.411 58.6605C530.884 58.6605 530.453 58.2335 530.453 57.7023C530.453 57.1748 530.88 56.7441 531.411 56.7441C531.942 56.7441 532.369 57.1748 532.369 57.7023Z" fill="#49E872"/>
<path d="M587.922 60.5017H538.804C537.705 60.5017 536.805 59.601 536.805 58.5028C536.805 57.4047 537.705 56.5039 538.804 56.5039H587.919C589.017 56.5039 589.918 57.4047 589.918 58.5028C589.921 59.6046 589.02 60.5017 587.922 60.5017Z" fill="#F4F4F4"/>
<path d="M541.114 89.0938H525.23V104.977H541.114V89.0938Z" fill="#DBDBDB"/>
<path d="M541.114 66.3945H525.23V82.2782H541.114V66.3945Z" fill="#DBDBDB"/>
<path d="M541.114 111.791H525.23V127.675H541.114V111.791Z" fill="#DBDBDB"/>
<path d="M593.954 78.3293H545.506C544.965 78.3293 544.52 77.8843 544.52 77.3424C544.52 76.8005 544.965 76.3555 545.506 76.3555H593.954C594.496 76.3555 594.941 76.8005 594.941 77.3424C594.941 77.8843 594.496 78.3293 593.954 78.3293Z" fill="#DBDBDB"/>
<path d="M593.954 74.382H545.506C544.965 74.382 544.52 73.937 544.52 73.3951C544.52 72.8532 544.965 72.4082 545.506 72.4082H593.954C594.496 72.4082 594.941 72.8532 594.941 73.3951C594.941 73.937 594.496 74.382 593.954 74.382Z" fill="#DBDBDB"/>
<path d="M593.954 82.2765H545.506C544.965 82.2765 544.52 81.8315 544.52 81.2896C544.52 80.7477 544.965 80.3027 545.506 80.3027H593.954C594.496 80.3027 594.941 80.7477 594.941 81.2896C594.941 81.8315 594.496 82.2765 593.954 82.2765Z" fill="#DBDBDB"/>
<path d="M593.954 101.028H545.506C544.965 101.028 544.52 100.583 544.52 100.042C544.52 99.4997 544.965 99.0547 545.506 99.0547H593.954C594.496 99.0547 594.941 99.4997 594.941 100.042C594.941 100.583 594.496 101.028 593.954 101.028Z" fill="#DBDBDB"/>
<path d="M593.954 97.0812H545.506C544.965 97.0812 544.52 96.6362 544.52 96.0943C544.52 95.5524 544.965 95.1074 545.506 95.1074H593.954C594.496 95.1074 594.941 95.5524 594.941 96.0943C594.941 96.6362 594.496 97.0812 593.954 97.0812Z" fill="#DBDBDB"/>
<path d="M593.954 104.976H545.506C544.965 104.976 544.52 104.531 544.52 103.989C544.52 103.447 544.965 103.002 545.506 103.002H593.954C594.496 103.002 594.941 103.447 594.941 103.989C594.941 104.531 594.496 104.976 593.954 104.976Z" fill="#DBDBDB"/>
<path d="M593.954 123.728H545.506C544.965 123.728 544.52 123.283 544.52 122.741C544.52 122.199 544.965 121.754 545.506 121.754H593.954C594.496 121.754 594.941 122.199 594.941 122.741C594.941 123.283 594.496 123.728 593.954 123.728Z" fill="#DBDBDB"/>
<path d="M593.954 119.78H545.506C544.965 119.78 544.52 119.335 544.52 118.794C544.52 118.252 544.965 117.807 545.506 117.807H593.954C594.496 117.807 594.941 118.252 594.941 118.794C594.941 119.335 594.496 119.78 593.954 119.78Z" fill="#DBDBDB"/>
<path d="M593.954 127.675H545.506C544.965 127.675 544.52 127.23 544.52 126.688C544.52 126.146 544.965 125.701 545.506 125.701H593.954C594.496 125.701 594.941 126.146 594.941 126.688C594.941 127.23 594.496 127.675 593.954 127.675Z" fill="#DBDBDB"/>
<path d="M662.298 82.2051L617.496 82.3487C616.068 82.3523 614.902 83.5258 614.905 84.9541L614.995 113.703L607.965 123.802L619.381 118.695L662.409 118.559C663.838 118.555 665.004 117.382 665 115.953L664.9 84.7998C664.9 83.3643 663.726 82.1979 662.298 82.2051Z" fill="#F4F4F4"/>
<path d="M657.918 101.57C655.689 100.842 654.759 99.9375 654.759 99.9375L654.684 100.009C654.02 100.634 653.288 101 652.621 101H652.556C651.889 101 651.156 100.634 650.493 100.009L650.417 99.9375C650.417 99.9375 649.491 100.842 647.259 101.57C643.968 102.801 644.955 107.804 644.955 107.843C645.059 108.4 645.12 108.593 645.17 108.615C648.476 110.086 656.69 110.086 659.995 108.615C660.049 108.593 660.107 108.403 660.211 107.843C660.222 107.804 661.223 102.819 657.918 101.57Z" fill="#56636D"/>
<path d="M656.048 95.1864L656.019 95.1577C655.832 94.9891 655.847 94.9962 655.847 94.9962C655.847 94.9962 656.17 93.367 655.911 92.5954C655.506 91.3645 653.076 90.5391 652.588 90.4422C652.588 90.4422 652.29 90.3811 652.272 90.3811C652.272 90.3811 651.888 90.3022 651.443 90.496C651.153 90.6072 649.642 91.2927 649.211 92.5918C648.953 93.3634 649.276 94.9926 649.276 94.9926C649.276 94.9926 649.29 94.9819 649.104 95.1541L649.075 95.1829C648.949 95.3264 648.982 95.7714 649.118 96.2343C649.243 96.6973 649.405 96.8229 649.441 96.9306C649.832 98.7752 651.199 100.351 652.592 100.351C653.984 100.351 655.28 98.7752 655.671 96.9306C655.71 96.8229 655.872 96.6973 655.994 96.2343C656.145 95.7714 656.177 95.2977 656.048 95.1864Z" fill="#56636D"/>
<path d="M638.548 108.291H619.887C619.198 108.291 618.631 107.724 618.631 107.035C618.631 106.346 619.198 105.779 619.887 105.779H638.548C639.241 105.779 639.804 106.346 639.804 107.035C639.804 107.724 639.237 108.291 638.548 108.291Z" fill="#56636D"/>
<path d="M638.548 104.258H619.887C619.198 104.258 618.631 103.695 618.631 103.002C618.631 102.313 619.198 101.746 619.887 101.746H638.548C639.241 101.746 639.804 102.313 639.804 103.002C639.804 103.691 639.237 104.258 638.548 104.258Z" fill="#56636D"/>
<path d="M632.007 94.1171H621.402C620.372 94.1171 619.525 93.2737 619.525 92.2402C619.525 91.2102 620.369 90.3633 621.402 90.3633H632.007C633.037 90.3633 633.884 91.2066 633.884 92.2402C633.884 93.2737 633.037 94.1171 632.007 94.1171Z" fill="#56636D"/>
<path d="M572.702 69.4736H546.063C545.216 69.4736 544.523 68.781 544.523 67.9341C544.523 67.0872 545.216 66.3945 546.063 66.3945H572.702C573.549 66.3945 574.242 67.0872 574.242 67.9341C574.242 68.781 573.549 69.4736 572.702 69.4736Z" fill="#4BE8A0"/>
<path d="M560.622 91.9072H546.063C545.216 91.9072 544.523 91.2146 544.523 90.3677C544.523 89.5207 545.216 88.8281 546.063 88.8281H560.622C561.469 88.8281 562.162 89.5207 562.162 90.3677C562.162 91.2146 561.469 91.9072 560.622 91.9072Z" fill="#4BE8A0"/>
<path d="M564.688 114.87H546.063C545.216 114.87 544.523 114.178 544.523 113.331C544.523 112.484 545.216 111.791 546.063 111.791H564.688C565.535 111.791 566.228 112.484 566.228 113.331C566.228 114.178 565.535 114.87 564.688 114.87Z" fill="#4BE8A0"/>
<defs>
<filter id="filter0_d_2_17" x="546.064" y="161.822" width="109.872" height="39.4869" filterUnits="userSpaceOnUse" color-interpolation-filters="sRGB">
<feFlood flood-opacity="0" result="BackgroundImageFix"/>
<feColorMatrix in="SourceAlpha" type="matrix" values="0 0 0 0 0 0 0 0 0 0 0 0 0 0 0 0 0 0 127 0" result="hardAlpha"/>
<feMorphology radius="1.64528" operator="dilate" in="SourceAlpha" result="effect1_dropShadow_2_17"/>
<feOffset/>
<feGaussianBlur stdDeviation="1.64528"/>
<feComposite in2="hardAlpha" operator="out"/>
<feColorMatrix type="matrix" values="0 0 0 0 0 0 0 0 0 0 0 0 0 0 0 0 0 0 0.1 0"/>
<feBlend mode="normal" in2="BackgroundImageFix" result="effect1_dropShadow_2_17"/>
<feBlend mode="normal" in="SourceGraphic" in2="effect1_dropShadow_2_17" result="shape"/>
</filter>
<filter id="filter1_d_2_17" x="54.0642" y="179.822" width="109.872" height="39.4869" filterUnits="userSpaceOnUse" color-interpolation-filters="sRGB">
<feFlood flood-opacity="0" result="BackgroundImageFix"/>
<feColorMatrix in="SourceAlpha" type="matrix" values="0 0 0 0 0 0 0 0 0 0 0 0 0 0 0 0 0 0 127 0" result="hardAlpha"/>
<feMorphology radius="1.64528" operator="dilate" in="SourceAlpha" result="effect1_dropShadow_2_17"/>
<feOffset/>
<feGaussianBlur stdDeviation="1.64528"/>
<feComposite in2="hardAlpha" operator="out"/>
<feColorMatrix type="matrix" values="0 0 0 0 0 0 0 0 0 0 0 0 0 0 0 0 0 0 0.1 0"/>
<feBlend mode="normal" in2="BackgroundImageFix" result="effect1_dropShadow_2_17"/>
<feBlend mode="normal" in="SourceGraphic" in2="effect1_dropShadow_2_17" result="shape"/>
</filter>
<filter id="filter2_d_2_17" x="375.064" y="4.82196" width="109.872" height="39.4869" filterUnits="userSpaceOnUse" color-interpolation-filters="sRGB">
<feFlood flood-opacity="0" result="BackgroundImageFix"/>
<feColorMatrix in="SourceAlpha" type="matrix" values="0 0 0 0 0 0 0 0 0 0 0 0 0 0 0 0 0 0 127 0" result="hardAlpha"/>
<feMorphology radius="1.64528" operator="dilate" in="SourceAlpha" result="effect1_dropShadow_2_17"/>
<feOffset/>
<feGaussianBlur stdDeviation="1.64528"/>
<feComposite in2="hardAlpha" operator="out"/>
<feColorMatrix type="matrix" values="0 0 0 0 0 0 0 0 0 0 0 0 0 0 0 0 0 0 0.1 0"/>
<feBlend mode="normal" in2="BackgroundImageFix" result="effect1_dropShadow_2_17"/>
<feBlend mode="normal" in="SourceGraphic" in2="effect1_dropShadow_2_17" result="shape"/>
</filter>
<filter id="filter3_d_2_17" x="47.0642" y="95.0642" width="168.872" height="38.8717" filterUnits="userSpaceOnUse" color-interpolation-filters="sRGB">
<feFlood flood-opacity="0" result="BackgroundImageFix"/>
<feColorMatrix in="SourceAlpha" type="matrix" values="0 0 0 0 0 0 0 0 0 0 0 0 0 0 0 0 0 0 127 0" result="hardAlpha"/>
<feMorphology radius="1.64528" operator="dilate" in="SourceAlpha" result="effect1_dropShadow_2_17"/>
<feOffset/>
<feGaussianBlur stdDeviation="1.64528"/>
<feComposite in2="hardAlpha" operator="out"/>
<feColorMatrix type="matrix" values="0 0 0 0 0 0 0 0 0 0 0 0 0 0 0 0 0 0 0.1 0"/>
<feBlend mode="normal" in2="BackgroundImageFix" result="effect1_dropShadow_2_17"/>
<feBlend mode="normal" in="SourceGraphic" in2="effect1_dropShadow_2_17" result="shape"/>
</filter>
<linearGradient id="paint0_linear_2_17" x1="349.013" y1="146.147" x2="351.887" y2="146.147" gradientUnits="userSpaceOnUse">
<stop stop-color="white" stop-opacity="0.7"/>
<stop offset="1" stop-color="white" stop-opacity="0.3"/>
</linearGradient>
<clipPath id="clip0_2_17">
<rect width="347" height="348.775" fill="white" transform="translate(175 74)"/>
</clipPath>
<clipPath id="clip1_2_17">
<rect width="90" height="104" fill="white" transform="translate(291 74)"/>
</clipPath>
</defs>
</svg>
