<svg width="973" height="158" viewBox="0 0 973 158" fill="none" xmlns="http://www.w3.org/2000/svg">
<path fill-rule="evenodd" clip-rule="evenodd" d="M0 51.8684V157.904H973V86.5569C963.971 80.8403 834.445 0 730.25 0C642.844 0 571.936 37.1659 520.286 64.2373C508.108 70.6204 497.001 76.4422 487 81.0833C434.585 105.408 368.56 121.625 243.75 121.625C118.94 121.625 0.5 52.125 0.5 52.125V52.1053L0 51.8684Z" fill="white"/>
<path opacity="0.15" d="M1 52.2207V98.5541C1 98.5541 119.44 132.725 244.25 132.725C369.06 132.725 418.869 121.721 487.5 98.5541C501.042 93.983 514.505 88.9609 528.223 83.8437C584.028 63.027 644.048 40.6375 730.75 40.6375C838.765 40.6375 974 158.208 974 158.208V86.9707C974 86.9707 838.765 0.0957031 730.75 0.0957031C643.344 0.0957031 572.436 37.2616 520.786 64.333C508.608 70.7161 497.501 76.5379 487.5 81.179C435.085 105.504 369.06 121.721 244.25 121.721C119.44 121.721 1 52.2207 1 52.2207Z" fill="url(#paint0_linear_10_2607)"/>
<defs>
<linearGradient id="paint0_linear_10_2607" x1="860.092" y1="101.881" x2="1" y2="101.881" gradientUnits="userSpaceOnUse">
<stop stop-color="#4A68ED"/>
<stop offset="1" stop-color="#5249D9"/>
</linearGradient>
</defs>
</svg>
