<svg width="115" height="114" viewBox="0 0 115 114" fill="none" xmlns="http://www.w3.org/2000/svg">
<path d="M110.566 8.79108C108.123 8.79108 106.132 6.81758 106.132 4.39555C106.132 1.97351 108.123 0 110.566 0C113.009 0 115 1.97351 115 4.39555C115 6.83253 113.009 8.79108 110.566 8.79108ZM115 30.694C115 28.272 113.009 26.2985 110.566 26.2985C108.123 26.2985 106.132 28.272 106.132 30.694C106.132 33.1161 108.123 35.0896 110.566 35.0896C113.009 35.0896 115 33.131 115 30.694ZM115 56.9925C115 54.5705 113.009 52.597 110.566 52.597C108.123 52.597 106.132 54.5705 106.132 56.9925C106.132 59.4146 108.123 61.3881 110.566 61.3881C113.009 61.403 115 59.4295 115 56.9925ZM115 83.306C115 80.8839 113.009 78.9104 110.566 78.9104C108.123 78.9104 106.132 80.8839 106.132 83.306C106.132 85.728 108.123 87.7015 110.566 87.7015C113.009 87.7015 115 85.728 115 83.306ZM115 109.604C115 107.182 113.009 105.209 110.566 105.209C108.123 105.209 106.132 107.182 106.132 109.604C106.132 112.026 108.123 114 110.566 114C113.009 114 115 112.026 115 109.604ZM88.4708 4.39555C88.4708 1.97351 86.48 0 84.0367 0C81.5934 0 79.6026 1.97351 79.6026 4.39555C79.6026 6.81758 81.5934 8.79108 84.0367 8.79108C86.48 8.79108 88.4708 6.83253 88.4708 4.39555ZM88.4708 30.694C88.4708 28.272 86.48 26.2985 84.0367 26.2985C81.5934 26.2985 79.6026 28.272 79.6026 30.694C79.6026 33.1161 81.5934 35.0896 84.0367 35.0896C86.48 35.0896 88.4708 33.131 88.4708 30.694ZM88.4708 56.9925C88.4708 54.5705 86.48 52.597 84.0367 52.597C81.5934 52.597 79.6026 54.5705 79.6026 56.9925C79.6026 59.4146 81.5934 61.3881 84.0367 61.3881C86.48 61.403 88.4708 59.4295 88.4708 56.9925ZM88.4708 83.306C88.4708 80.8839 86.48 78.9104 84.0367 78.9104C81.5934 78.9104 79.6026 80.8839 79.6026 83.306C79.6026 85.728 81.5934 87.7015 84.0367 87.7015C86.48 87.7015 88.4708 85.728 88.4708 83.306ZM88.4708 109.604C88.4708 107.182 86.48 105.209 84.0367 105.209C81.5934 105.209 79.6026 107.182 79.6026 109.604C79.6026 112.026 81.5934 114 84.0367 114C86.48 114 88.4708 112.026 88.4708 109.604ZM61.9266 4.39555C61.9266 1.97351 59.9357 0 57.4925 0C55.0492 0 53.0583 1.97351 53.0583 4.39555C53.0583 6.81758 55.0492 8.79108 57.4925 8.79108C59.9508 8.79108 61.9266 6.83253 61.9266 4.39555ZM61.9266 30.694C61.9266 28.272 59.9357 26.2985 57.4925 26.2985C55.0492 26.2985 53.0583 28.272 53.0583 30.694C53.0583 33.1161 55.0492 35.0896 57.4925 35.0896C59.9508 35.0896 61.9266 33.131 61.9266 30.694ZM61.9266 56.9925C61.9266 54.5705 59.9357 52.597 57.4925 52.597C55.0492 52.597 53.0583 54.5705 53.0583 56.9925C53.0583 59.4146 55.0492 61.3881 57.4925 61.3881C59.9508 61.403 61.9266 59.4295 61.9266 56.9925ZM61.9266 83.306C61.9266 80.8839 59.9357 78.9104 57.4925 78.9104C55.0492 78.9104 53.0583 80.8839 53.0583 83.306C53.0583 85.728 55.0492 87.7015 57.4925 87.7015C59.9508 87.7015 61.9266 85.728 61.9266 83.306ZM61.9266 109.604C61.9266 107.182 59.9357 105.209 57.4925 105.209C55.0492 105.209 53.0583 107.182 53.0583 109.604C53.0583 112.026 55.0492 114 57.4925 114C59.9508 114 61.9266 112.026 61.9266 109.604ZM35.3973 4.39555C35.3973 1.97351 33.4065 0 30.9632 0C28.52 0 26.5292 1.97351 26.5292 4.39555C26.5292 6.81758 28.52 8.79108 30.9632 8.79108C33.4216 8.79108 35.3973 6.83253 35.3973 4.39555ZM35.3973 30.694C35.3973 28.272 33.4065 26.2985 30.9632 26.2985C28.52 26.2985 26.5292 28.272 26.5292 30.694C26.5292 33.1161 28.52 35.0896 30.9632 35.0896C33.4216 35.0896 35.3973 33.131 35.3973 30.694ZM35.3973 56.9925C35.3973 54.5705 33.4065 52.597 30.9632 52.597C28.52 52.597 26.5292 54.5705 26.5292 56.9925C26.5292 59.4146 28.52 61.3881 30.9632 61.3881C33.4216 61.403 35.3973 59.4295 35.3973 56.9925ZM35.3973 83.306C35.3973 80.8839 33.4065 78.9104 30.9632 78.9104C28.52 78.9104 26.5292 80.8839 26.5292 83.306C26.5292 85.728 28.52 87.7015 30.9632 87.7015C33.4216 87.7015 35.3973 85.728 35.3973 83.306ZM35.3973 109.604C35.3973 107.182 33.4065 105.209 30.9632 105.209C28.52 105.209 26.5292 107.182 26.5292 109.604C26.5292 112.026 28.52 114 30.9632 114C33.4216 114 35.3973 112.026 35.3973 109.604ZM8.8682 4.39555C8.8682 1.97351 6.87738 0 4.4341 0C1.99082 0 0 1.97351 0 4.39555C0 6.81758 1.99082 8.79108 4.4341 8.79108C6.87738 8.79108 8.8682 6.83253 8.8682 4.39555ZM8.8682 30.694C8.8682 28.272 6.87738 26.2985 4.4341 26.2985C1.99082 26.2985 0 28.272 0 30.694C0 33.1161 1.99082 35.0896 4.4341 35.0896C6.87738 35.0896 8.8682 33.131 8.8682 30.694ZM8.8682 56.9925C8.8682 54.5705 6.87738 52.597 4.4341 52.597C1.99082 52.597 0 54.5705 0 56.9925C0 59.4146 1.99082 61.3881 4.4341 61.3881C6.87738 61.3881 8.8682 59.4295 8.8682 56.9925ZM8.8682 83.306C8.8682 80.8839 6.87738 78.9104 4.4341 78.9104C1.99082 78.9104 0 80.8839 0 83.306C0 85.728 1.99082 87.7015 4.4341 87.7015C6.87738 87.7015 8.8682 85.728 8.8682 83.306ZM8.8682 109.604C8.8682 107.182 6.87738 105.209 4.4341 105.209C1.99082 105.209 0 107.182 0 109.604C0 112.026 1.99082 114 4.4341 114C6.87738 114 8.8682 112.026 8.8682 109.604Z" fill="#839EC9"/>
</svg>
